<?xml version="1.0" encoding="UTF-8" standalone="no"?>
<!-- Created with Inkscape (http://www.inkscape.org/) -->
<svg
   xmlns:svg="http://www.w3.org/2000/svg"
   xmlns="http://www.w3.org/2000/svg"
   version="1.0"
   width="158.56076"
   height="79.284424"
   viewBox="-40.981 -92.592 300 300"
   id="svg2"
   xml:space="preserve">
<defs
   id="defs4">
</defs>
<path
   d="M -36.585379,54.412576 L -36.585379,54.421305 L -36.582469,54.421305 L -36.582469,54.243829 C -36.57956,54.302018 -36.585379,54.357297 -36.585379,54.412576 z "
   style="fill:#6ac7bd"
   id="path6" />
<g
   transform="matrix(2.9094193,0,0,2.9094193,-179.03055,-86.624435)"
   style="opacity:0.65"
   id="g8">
	<g
   id="g10">
		<path
   d="M 24.482,23.998 L 24.482,23.995 C 10.961,23.994 0,34.955 0,48.476 L 0.001,48.479 L 0.001,48.482 C 0.003,62.001 10.962,72.96 24.482,72.96 L 24.482,72.96 L 0,72.96 L 0,97.442 L 0.003,97.442 C 13.523,97.44 24.482,86.48 24.482,72.961 L 24.485,72.961 C 38.005,72.959 48.963,62 48.963,48.479 L 48.963,48.476 C 48.962,34.957 38.001,23.998 24.482,23.998 z M 24.482,50.928 C 23.13,50.928 22.034,49.832 22.034,48.48 C 22.034,47.128 23.13,46.032 24.482,46.032 C 25.834,46.032 26.93,47.128 26.93,48.48 C 26.93,49.832 25.834,50.928 24.482,50.928 z "
   style="fill:#ef412a"
   id="path12" />
	</g>
</g>
<g
   transform="matrix(2.9094193,0,0,2.9094193,-179.03055,-86.624435)"
   style="opacity:0.65"
   id="g14">
	<g
   id="g16">
		<path
   d="M 119.96,48.842 C 120.024,47.548 121.086,46.516 122.397,46.516 C 123.707,46.516 124.768,47.548 124.833,48.843 C 137.211,47.62 146.879,37.181 146.879,24.483 L 122.397,24.483 C 122.396,10.961 111.435,0 97.915,0 L 97.915,24.485 C 97.917,37.183 107.584,47.619 119.96,48.842 z M 124.833,49.084 C 124.769,50.379 123.707,51.411 122.397,51.411 L 122.396,51.411 L 122.396,73.444 L 146.878,73.444 L 146.878,73.441 C 146.876,60.745 137.208,50.308 124.833,49.084 z M 119.949,48.963 L 97.915,48.963 L 97.915,73.442 L 97.915,73.442 C 110.613,73.442 121.052,63.774 122.275,51.399 C 120.981,51.334 119.949,50.274 119.949,48.963 z "
   style="fill:#a9c542"
   id="path18" />
	</g>
</g>
<g
   transform="matrix(2.9094193,0,0,2.9094193,-179.03055,-86.624435)"
   style="opacity:0.65"
   id="g20">
	<g
   id="g22">
		<path
   d="M 168.912,48.967 C 168.912,47.656 169.945,46.596 171.24,46.531 C 170.018,34.152 159.579,24.482 146.879,24.482 L 146.879,48.963 C 146.879,62.484 157.84,73.444 171.361,73.444 L 171.361,51.414 C 170.007,51.415 168.912,50.319 168.912,48.967 z M 195.841,48.978 C 195.841,48.973 195.842,48.969 195.842,48.964 L 195.842,24.482 L 195.838,24.482 C 183.14,24.484 172.702,34.154 171.482,46.531 C 172.776,46.595 173.808,47.656 173.808,48.967 C 173.808,50.278 172.776,51.339 171.481,51.403 C 172.679,63.59 182.814,73.146 195.244,73.445 L 171.361,73.445 L 171.361,97.927 L 171.364,97.927 C 184.879,97.925 195.834,86.973 195.842,73.46 L 195.844,73.46 L 195.844,48.979 L 195.841,48.978 z M 195.832,48.964 L 195.842,48.964 L 195.842,48.978 L 195.832,48.964 z "
   style="fill:#f9c759"
   id="path24" />
	</g>
</g>
<g
   transform="matrix(2.9094193,0,0,2.9094193,-179.03055,-86.624435)"
   style="opacity:0.65"
   id="g26">
	<g
   id="g28">
		<path
   d="M 70.994,48.479 L 48.962,48.479 L 48.962,48.481 L 70.995,48.481 C 70.995,48.481 70.994,48.48 70.994,48.479 z M 73.44,24.001 L 73.437,24.001 L 73.437,46.032 C 73.439,46.032 73.44,46.032 73.442,46.032 C 74.794,46.032 75.89,47.128 75.89,48.48 C 75.89,49.832 74.794,50.928 73.442,50.928 C 72.091,50.928 70.996,49.834 70.994,48.483 L 48.958,48.483 L 48.958,48.486 C 48.96,62.005 59.919,72.964 73.437,72.964 C 86.955,72.964 97.914,62.005 97.916,48.486 L 97.916,48.483 C 97.916,34.963 86.958,24.003 73.44,24.001 z "
   style="fill:#6ac7bd"
   id="path30" />
	</g>
</g>
<g
   transform="matrix(2.9094193,0,0,2.9094193,-179.03055,-86.624435)"
   style="opacity:0.65"
   id="g32">
	<g
   id="g34">
		<path
   d="M 24.482,23.998 L 24.482,23.995 C 10.961,23.994 0,34.955 0,48.476 L 22.034,48.476 C 22.036,47.125 23.131,46.031 24.482,46.031 C 25.834,46.031 26.93,47.127 26.93,48.479 C 26.93,49.831 25.834,50.927 24.482,50.927 L 24.482,72.937 C 24.469,59.427 13.514,48.479 0,48.479 L 0,72.96 L 24.481,72.96 L 24.481,72.96 L 0,72.96 L 0,97.442 L 0.003,97.442 C 13.523,97.44 24.482,86.48 24.482,72.961 L 24.485,72.961 C 38.005,72.959 48.963,62 48.963,48.479 L 48.963,48.476 C 48.962,34.957 38.001,23.998 24.482,23.998 z "
   style="fill:#ef412a"
   id="path36" />
	</g>
</g>
<g
   transform="matrix(2.9094193,0,0,2.9094193,-179.03055,-86.624435)"
   style="opacity:0.65"
   id="g38">
	<g
   id="g40">
		<path
   d="M 122.397,46.516 C 123.707,46.516 124.768,47.548 124.833,48.843 C 137.211,47.62 146.879,37.181 146.879,24.483 L 122.397,24.483 L 122.397,46.516 L 122.397,46.516 z M 97.915,0 L 97.915,24.482 L 122.396,24.482 C 122.396,10.961 111.435,0 97.915,0 z M 122.275,46.528 C 121.052,34.151 110.613,24.482 97.914,24.482 L 97.914,48.964 L 97.914,48.964 L 97.914,73.443 L 97.914,73.443 C 110.612,73.443 121.051,63.775 122.274,51.4 C 120.98,51.335 119.948,50.275 119.948,48.964 C 119.949,47.653 120.98,46.593 122.275,46.528 z M 124.833,49.084 C 124.769,50.379 123.707,51.411 122.397,51.411 L 122.396,51.411 L 122.396,73.444 L 146.878,73.444 L 146.878,73.441 C 146.876,60.745 137.208,50.308 124.833,49.084 z "
   style="fill:#a9c542"
   id="path42" />
	</g>
</g>
<g
   transform="matrix(2.9094193,0,0,2.9094193,-179.03055,-86.624435)"
   style="opacity:0.65"
   id="g44">
	<g
   id="g46">
		<path
   d="M 173.795,49.1 C 173.724,50.389 172.666,51.415 171.36,51.415 C 170.006,51.415 168.911,50.319 168.911,48.967 C 168.911,47.656 169.944,46.596 171.239,46.531 C 170.017,34.152 159.578,24.482 146.878,24.482 L 146.878,48.963 C 146.878,62.484 157.839,73.444 171.36,73.444 L 171.36,97.926 L 171.363,97.926 C 184.878,97.924 195.833,86.972 195.841,73.459 L 195.842,73.459 L 195.842,73.443 L 195.841,73.443 C 195.833,60.753 186.167,50.322 173.795,49.1 z M 195.838,24.482 C 183.14,24.484 172.702,34.154 171.482,46.531 C 172.775,46.595 173.806,47.655 173.808,48.964 L 195.841,48.964 L 195.841,48.979 C 195.841,48.974 195.842,48.969 195.842,48.964 L 195.842,24.482 L 195.838,24.482 z "
   style="fill:#f9c759"
   id="path48" />
	</g>
</g>
<g
   transform="matrix(2.9094193,0,0,2.9094193,-179.03055,-86.624435)"
   style="opacity:0.65"
   id="g50">
	<g
   id="g52">
		<path
   d="M 71.007,48.347 C 71.075,47.105 72.062,46.117 73.304,46.046 C 72.509,38.02 67.85,31.133 61.201,27.284 C 57.601,25.2 53.424,24 48.965,24 L 48.962,24 C 48.962,28.46 50.161,32.638 52.245,36.24 C 56.093,42.891 62.98,47.552 71.007,48.347 z M 48.962,48.418 C 48.962,48.438 48.961,48.456 48.961,48.476 L 48.961,48.479 L 48.962,48.479 L 48.962,48.418 z M 70.995,48.482 C 70.995,48.481 70.995,48.481 70.995,48.48 L 48.962,48.48 L 48.962,48.482 L 70.995,48.482 z M 73.44,24.001 L 73.437,24.001 L 73.437,46.032 C 73.439,46.032 73.44,46.032 73.442,46.032 C 74.794,46.032 75.89,47.128 75.89,48.48 C 75.89,49.832 74.794,50.928 73.442,50.928 C 72.091,50.928 70.996,49.834 70.994,48.483 L 48.958,48.483 L 48.958,48.486 C 48.96,62.005 59.919,72.964 73.437,72.964 C 86.955,72.964 97.914,62.005 97.916,48.486 L 97.916,48.483 C 97.916,34.963 86.958,24.003 73.44,24.001 z "
   style="fill:#6ac7bd"
   id="path54" />
	</g>
</g>
<g
   transform="matrix(2.9094193,0,0,2.9094193,-179.03055,-86.624435)"
   style="opacity:0.65"
   id="g56">
	<g
   id="g58">
		<path
   d="M 24.482,23.998 L 24.482,23.995 C 10.961,23.994 0,34.955 0,48.476 L 22.034,48.476 C 22.036,47.125 23.131,46.031 24.482,46.031 C 25.834,46.031 26.93,47.127 26.93,48.479 C 26.93,49.831 25.834,50.927 24.482,50.927 C 23.171,50.927 22.11,49.894 22.046,48.6 C 9.669,49.824 0.001,60.262 0.001,72.96 L 0,72.96 L 0,97.442 L 0.003,97.442 C 13.523,97.44 24.482,86.48 24.482,72.961 L 24.485,72.961 C 38.005,72.959 48.963,62 48.963,48.479 L 48.963,48.476 C 48.962,34.957 38.001,23.998 24.482,23.998 z "
   style="fill:#ef412a"
   id="path60" />
	</g>
</g>
<g
   transform="matrix(2.9094193,0,0,2.9094193,-179.03055,-86.624435)"
   style="opacity:0.65"
   id="g62">
	<g
   id="g64">
		<path
   d="M 119.949,48.963 C 119.949,47.611 121.045,46.515 122.397,46.515 C 123.707,46.515 124.768,47.547 124.833,48.842 C 137.211,47.619 146.879,37.18 146.879,24.482 L 122.397,24.482 C 122.396,10.961 111.435,0 97.915,0 L 97.915,24.482 L 122.394,24.482 C 108.874,24.484 97.916,35.444 97.916,48.963 L 97.916,48.963 L 97.916,73.442 L 97.916,73.442 C 110.614,73.442 121.053,63.774 122.276,51.399 C 120.981,51.334 119.949,50.274 119.949,48.963 z M 124.833,49.084 C 124.769,50.379 123.707,51.411 122.397,51.411 L 122.396,51.411 L 122.396,73.444 L 146.878,73.444 L 146.878,73.441 C 146.876,60.745 137.208,50.308 124.833,49.084 z "
   style="fill:#a9c542"
   id="path66" />
	</g>
</g>
<g
   transform="matrix(2.9094193,0,0,2.9094193,-179.03055,-86.624435)"
   style="opacity:0.65"
   id="g68">
	<g
   id="g70">
		<path
   d="M 195.841,48.979 L 195.835,48.964 L 195.841,48.964 L 195.841,48.979 C 195.841,48.974 195.842,48.969 195.842,48.964 L 195.842,24.482 L 195.838,24.482 C 183.14,24.484 172.702,34.154 171.482,46.531 C 172.776,46.595 173.808,47.656 173.808,48.967 C 173.808,50.319 172.712,51.415 171.361,51.415 C 170.007,51.415 168.912,50.319 168.912,48.967 C 168.912,47.656 169.945,46.596 171.24,46.531 C 170.018,34.152 159.579,24.482 146.879,24.482 L 146.879,48.963 C 146.879,62.484 157.84,73.444 171.361,73.444 L 171.361,97.926 L 171.364,97.926 C 184.883,97.924 195.843,86.963 195.843,73.444 L 171.959,73.444 C 185.203,73.126 195.841,62.299 195.841,48.979 z "
   style="fill:#f9c759"
   id="path72" />
	</g>
</g>
<g
   transform="matrix(2.9094193,0,0,2.9094193,-179.03055,-86.624435)"
   style="opacity:0.65"
   id="g74">
	<g
   id="g76">
		<path
   d="M 73.44,24.001 L 73.437,24.001 C 59.919,24.003 48.96,34.959 48.958,48.476 L 48.958,48.479 L 48.961,48.479 L 48.961,48.481 L 48.957,48.482 L 48.957,48.485 C 48.959,62.004 59.918,72.963 73.436,72.963 C 86.954,72.963 97.913,62.004 97.915,48.485 L 97.915,48.482 C 97.916,34.963 86.958,24.003 73.44,24.001 z M 73.442,50.928 C 72.09,50.928 70.994,49.832 70.994,48.48 C 70.994,47.128 72.09,46.032 73.442,46.032 C 74.794,46.032 75.89,47.128 75.89,48.48 C 75.89,49.832 74.794,50.928 73.442,50.928 z "
   style="fill:#6ac7bd"
   id="path78" />
	</g>
</g>
</svg>