<?xml version="1.0" encoding="UTF-8" standalone="no"?>
<!-- Created with Inkscape (http://www.inkscape.org/) -->
<svg
   xmlns:dc="http://purl.org/dc/elements/1.1/"
   xmlns:cc="http://web.resource.org/cc/"
   xmlns:rdf="http://www.w3.org/1999/02/22-rdf-syntax-ns#"
   xmlns:svg="http://www.w3.org/2000/svg"
   xmlns="http://www.w3.org/2000/svg"
   xmlns:sodipodi="http://sodipodi.sourceforge.net/DTD/sodipodi-0.dtd"
   xmlns:inkscape="http://www.inkscape.org/namespaces/inkscape"
   width="141.17999"
   height="55.34"
   id="svg2207"
   sodipodi:version="0.32"
   inkscape:version="0.45"
   version="1.0"
   sodipodi:docname="ohand-color.svg"
   inkscape:output_extension="org.inkscape.output.svg.inkscape"
   sodipodi:docbase="/home/mallum/Projects/admin/oh-doc-tools/common"
   sodipodi:modified="true">
  <defs
     id="defs3" />
  <sodipodi:namedview
     id="base"
     pagecolor="#ffffff"
     bordercolor="#666666"
     borderopacity="1.0"
     inkscape:pageopacity="0.0"
     inkscape:pageshadow="2"
     inkscape:zoom="1.2"
     inkscape:cx="160"
     inkscape:cy="146.21189"
     inkscape:document-units="mm"
     inkscape:current-layer="layer1"
     height="55.34px"
     width="141.18px"
     inkscape:window-width="772"
     inkscape:window-height="581"
     inkscape:window-x="5"
     inkscape:window-y="48" />
  <metadata
     id="metadata2211">
    <rdf:RDF>
      <cc:Work
         rdf:about="">
        <dc:format>image/svg+xml</dc:format>
        <dc:type
           rdf:resource="http://purl.org/dc/dcmitype/StillImage" />
      </cc:Work>
    </rdf:RDF>
  </metadata>
  <g
     inkscape:label="Layer 1"
     inkscape:groupmode="layer"
     id="layer1">
    <g
       id="g2094"
       style="fill:#6d6d70;fill-opacity:1"
       inkscape:export-filename="/home/mallum/Desktop/g2126.png"
       inkscape:export-xdpi="312.71841"
       inkscape:export-ydpi="312.71841"
       transform="matrix(0.5954767,0,0,0.5954767,31.793058,-18.471052)">
      <g
         id="g19"
         style="fill:#6d6d70;fill-opacity:1">
        <path
           style="fill:#6d6d70;fill-opacity:1"
           id="path21"
           d="M 48.693,50.633 C 40.282,50.633 33.439,57.477 33.439,65.888 L 33.439,81.142 L 41.066,81.142 L 41.066,65.888 C 41.066,61.684 44.486,58.261 48.692,58.261 C 52.897,58.261 56.32,61.684 56.32,65.888 C 56.32,70.093 52.897,73.516 48.692,73.516 C 45.677,73.516 43.065,71.756 41.828,69.211 L 41.828,79.504 C 43.892,80.549 46.224,81.142 48.692,81.142 C 57.103,81.142 63.947,74.3 63.947,65.888 C 63.948,57.477 57.104,50.633 48.693,50.633 z " />
      </g>
      <path
         style="fill:#6d6d70;fill-opacity:1"
         id="path23"
         d="M 18.486,50.557 C 26.942,50.557 33.819,57.435 33.819,65.888 C 33.819,74.344 26.942,81.223 18.486,81.223 C 10.032,81.223 3.152,74.344 3.152,65.888 C 3.152,57.435 10.032,50.557 18.486,50.557 z M 18.486,73.556 C 22.713,73.556 26.153,70.118 26.153,65.888 C 26.153,61.661 22.713,58.222 18.486,58.222 C 14.258,58.222 10.819,61.661 10.819,65.888 C 10.82,70.117 14.259,73.556 18.486,73.556 z " />
      <path
         style="fill:#6d6d70;fill-opacity:1"
         id="path25"
         d="M 94.074,107.465 L 94.074,96.016 C 94.074,87.605 87.233,80.763 78.822,80.763 C 70.41,80.763 63.567,87.605 63.567,96.016 C 63.567,104.427 70.41,111.269 78.822,111.269 C 81.289,111.269 83.621,110.676 85.685,109.631 L 85.685,99.339 C 84.448,101.885 81.836,103.644 78.822,103.644 C 74.615,103.644 71.194,100.221 71.194,96.016 C 71.194,91.81 74.615,88.388 78.822,88.388 C 83.026,88.388 86.448,91.81 86.448,96.016 L 86.448,107.456 C 86.448,109.562 88.156,111.268 90.262,111.268 C 92.364,111.269 94.068,109.566 94.074,107.465 z " />
      <path
         style="fill:#6d6d70;fill-opacity:1"
         id="path27"
         d="M 124.197,95.814 C 124.088,87.496 117.293,80.762 108.949,80.762 C 100.59,80.762 93.783,87.52 93.697,95.856 L 93.693,95.856 L 93.695,107.456 C 93.695,109.562 95.402,111.268 97.509,111.268 C 99.611,111.268 101.316,109.566 101.321,107.464 L 101.321,95.994 L 101.321,95.994 C 101.333,91.798 104.747,88.388 108.948,88.388 C 113.147,88.388 116.563,91.798 116.575,95.994 L 116.575,107.456 C 116.575,109.562 118.282,111.268 120.387,111.268 C 122.492,111.268 124.201,109.562 124.201,107.456 L 124.201,95.814 L 124.197,95.814 z " />
      <path
         style="fill:#6d6d70;fill-opacity:1"
         id="path29"
         d="M 63.946,96.005 L 63.946,95.854 L 63.943,95.854 L 63.943,95.815 L 63.942,95.815 C 63.833,87.497 57.037,80.761 48.693,80.761 C 48.682,80.761 48.671,80.763 48.658,80.763 C 48.382,80.763 48.107,80.772 47.833,80.786 C 47.75,80.791 47.668,80.799 47.586,80.806 C 47.378,80.822 47.172,80.838 46.968,80.862 C 46.884,80.873 46.801,80.882 46.719,80.893 C 46.508,80.92 46.298,80.952 46.091,80.987 C 46.024,80.999 45.958,81.01 45.891,81.024 C 45.649,81.068 45.406,81.119 45.168,81.175 C 45.14,81.183 45.112,81.189 45.085,81.195 C 43.656,81.542 42.306,82.092 41.065,82.812 L 41.065,80.761 L 33.438,80.761 L 33.438,95.857 L 33.435,95.857 L 33.435,107.457 C 33.435,109.563 35.142,111.269 37.248,111.269 C 39.093,111.269 40.632,109.958 40.984,108.217 C 41.036,107.963 41.065,107.702 41.065,107.435 L 41.065,95.873 C 41.086,94.732 41.357,93.65 41.828,92.685 L 41.828,92.693 C 42.598,91.106 43.905,89.824 45.511,89.085 C 45.519,89.08 45.529,89.076 45.536,89.073 C 45.849,88.928 46.174,88.807 46.508,88.707 C 46.523,88.704 46.536,88.699 46.55,88.696 C 46.699,88.651 46.85,88.614 47.004,88.576 C 47.025,88.575 47.046,88.567 47.069,88.562 C 47.234,88.527 47.402,88.495 47.572,88.469 C 47.586,88.468 47.6,88.466 47.615,88.463 C 47.763,88.443 47.916,88.427 48.067,88.415 C 48.106,88.41 48.145,88.407 48.186,88.404 C 48.352,88.393 48.52,88.386 48.691,88.386 C 52.888,88.387 56.304,91.797 56.316,95.992 L 56.316,107.454 C 56.316,109.56 58.023,111.266 60.13,111.266 C 61.976,111.266 63.516,109.954 63.867,108.211 C 63.919,107.963 63.946,107.706 63.946,107.442 L 63.946,96.024 C 63.946,96.021 63.947,96.018 63.947,96.015 C 63.948,96.011 63.946,96.008 63.946,96.005 z " />
      <path
         style="fill:#6d6d70;fill-opacity:1"
         id="path31"
         d="M 180.644,50.633 C 178.539,50.633 176.832,52.341 176.832,54.447 L 176.832,65.887 C 176.832,70.092 173.41,73.513 169.203,73.513 C 164.998,73.513 161.576,70.092 161.576,65.887 C 161.576,61.683 164.998,58.26 169.203,58.26 C 172.219,58.26 174.83,60.019 176.068,62.565 L 176.068,52.271 C 174.004,51.225 171.673,50.632 169.203,50.632 C 160.793,50.632 153.951,57.476 153.951,65.887 C 153.951,74.298 160.793,81.141 169.203,81.141 C 177.615,81.141 184.459,74.298 184.459,65.887 L 184.459,54.447 C 184.458,52.341 182.751,50.633 180.644,50.633 z " />
      <path
         style="fill:#6d6d70;fill-opacity:1"
         id="path33"
         d="M 124.203,77.339 L 124.203,65.687 L 124.197,65.687 C 124.088,57.371 117.293,50.633 108.949,50.633 C 100.592,50.633 93.783,57.393 93.697,65.731 L 93.695,65.731 L 93.695,65.877 C 93.695,65.882 93.693,65.885 93.693,65.888 C 93.693,65.891 93.695,65.896 93.695,65.899 L 93.695,77.33 C 93.695,79.435 95.402,81.142 97.509,81.142 C 99.614,81.142 101.321,79.435 101.321,77.33 L 101.321,65.868 C 101.333,61.672 104.747,58.261 108.948,58.261 C 113.147,58.261 116.563,61.672 116.575,65.868 L 116.575,65.868 L 116.575,77.329 C 116.575,79.434 118.282,81.141 120.389,81.141 C 122.492,81.142 124.197,79.44 124.203,77.339 z " />
      <path
         style="fill:#6d6d70;fill-opacity:1"
         id="path35"
         d="M 150.517,80.761 C 148.41,80.761 146.703,82.469 146.703,84.575 L 146.703,96.015 C 146.703,100.22 143.283,103.643 139.076,103.643 C 134.871,103.643 131.449,100.22 131.449,96.015 C 131.449,91.808 134.871,88.387 139.076,88.387 C 142.092,88.387 144.703,90.145 145.941,92.692 L 145.941,82.397 C 143.875,81.353 141.545,80.76 139.076,80.76 C 130.666,80.76 123.822,87.604 123.822,96.015 C 123.822,104.426 130.666,111.268 139.076,111.268 C 147.486,111.268 154.33,104.426 154.33,96.015 L 154.33,84.575 C 154.33,82.469 152.623,80.761 150.517,80.761 z " />
      <path
         style="fill:#6d6d70;fill-opacity:1"
         id="path37"
         d="M 82.625,77.345 C 82.625,75.247 80.923,73.547 78.826,73.547 L 78.826,81.142 C 80.922,81.142 82.625,79.442 82.625,77.345 z " />
      <path
         style="fill:#6d6d70;fill-opacity:1"
         id="path39"
         d="M 90.252,69.685 C 92.35,69.685 94.048,67.987 94.048,65.888 L 86.453,65.888 C 86.453,67.986 88.154,69.685 90.252,69.685 z " />
      <path
         style="fill:#6d6d70;fill-opacity:1"
         id="path41"
         d="M 93.832,77.329 C 93.832,75.223 92.125,73.516 90.018,73.516 L 78.825,73.516 C 74.619,73.516 71.199,70.093 71.199,65.888 C 71.199,61.684 74.619,58.261 78.825,58.261 C 83.032,58.261 86.453,61.684 86.453,65.888 C 86.453,68.904 84.694,71.514 82.149,72.752 L 92.442,72.752 C 93.488,70.689 94.08,68.356 94.08,65.888 C 94.08,57.477 87.237,50.633 78.826,50.633 C 70.415,50.633 63.571,57.477 63.571,65.888 C 63.571,74.3 70.415,81.142 78.826,81.142 L 90.018,81.142 C 92.125,81.142 93.832,79.435 93.832,77.329 z " />
      <path
         style="fill:#6d6d70;fill-opacity:1"
         id="path43"
         d="M 142.869,77.345 C 142.869,75.247 141.168,73.547 139.07,73.547 L 139.07,81.142 C 141.167,81.142 142.869,79.442 142.869,77.345 z " />
      <path
         style="fill:#6d6d70;fill-opacity:1"
         id="path45"
         d="M 150.496,69.685 C 152.594,69.685 154.293,67.987 154.293,65.888 L 146.699,65.888 C 146.699,67.986 148.398,69.685 150.496,69.685 z " />
      <path
         style="fill:#6d6d70;fill-opacity:1"
         id="path47"
         d="M 154.076,77.329 C 154.076,75.223 152.367,73.516 150.262,73.516 L 139.07,73.516 C 134.865,73.516 131.443,70.093 131.443,65.888 C 131.443,61.684 134.865,58.261 139.07,58.261 C 143.275,58.261 146.699,61.684 146.699,65.888 C 146.699,68.904 144.939,71.514 142.392,72.752 L 152.687,72.752 C 153.73,70.689 154.324,68.356 154.324,65.888 C 154.324,57.477 147.48,50.633 139.07,50.633 C 130.66,50.633 123.816,57.477 123.816,65.888 C 123.816,74.3 130.66,81.142 139.07,81.142 L 150.261,81.142 C 152.367,81.142 154.076,79.435 154.076,77.329 z " />
    </g>
    <g
       id="g2126"
       transform="matrix(0.7679564,0,0,0.7679564,-66.520631,11.42903)"
       inkscape:export-xdpi="312.71841"
       inkscape:export-ydpi="312.71841"
       style="fill:#35992a;fill-opacity:1">
      <g
         transform="translate(86.33975,4.23985e-2)"
         style="fill:#35992a;fill-opacity:1"
         id="g2114">
        <g
           style="fill:#35992a;fill-opacity:1"
           id="g2116">
          <path
             id="path2118"
             transform="translate(-86.33975,-4.239934e-2)"
             d="M 89.96875,0.03125 C 87.962748,0.031250001 86.34375,1.6815001 86.34375,3.6875 L 86.34375,17.71875 L 86.34375,19.6875 L 86.34375,28.90625 C 86.343752,39.06825 94.61925,47.34375 104.78125,47.34375 L 113.375,47.34375 L 123.1875,47.34375 L 127.15625,47.34375 C 129.16325,47.343749 130.8125,45.72475 130.8125,43.71875 C 130.8125,41.71275 129.16325,40.09375 127.15625,40.09375 L 123.1875,40.09375 L 123.1875,19.6875 L 123.1875,14.65625 L 123.1875,3.6875 C 123.1875,1.6815 121.5675,0.03125 119.5625,0.03125 C 117.5555,0.031250001 115.9375,1.6815001 115.9375,3.6875 L 115.9375,14.28125 C 115.1185,13.65425 114.26275,13.109 113.34375,12.625 L 113.34375,3.6875 C 113.34475,1.6815 111.6925,0.03125 109.6875,0.03125 C 107.6825,0.031250001 106.0625,1.6815001 106.0625,3.6875 L 106.0625,10.5625 C 105.6305,10.5325 105.22025,10.5 104.78125,10.5 C 104.34125,10.5 103.90075,10.5325 103.46875,10.5625 L 103.46875,3.6875 C 103.46975,1.6815 101.84975,0.03125 99.84375,0.03125 C 97.837749,0.031250001 96.21875,1.6815001 96.21875,3.6875 L 96.21875,12.625 C 95.299754,13.109 94.41375,13.65425 93.59375,14.28125 L 93.59375,3.6875 C 93.59475,1.6815 91.97475,0.03125 89.96875,0.03125 z M 104.78125,14.34375 C 112.80825,14.34375 119.3125,20.87925 119.3125,28.90625 C 119.3125,36.93325 112.80825,43.46875 104.78125,43.46875 C 96.754254,43.46875 90.21875,36.93425 90.21875,28.90625 C 90.218752,20.87825 96.753253,14.34375 104.78125,14.34375 z "
             style="fill:#35992a;fill-opacity:1" />
        </g>
      </g>
      <path
         style="fill:#35992a;fill-opacity:1"
         id="path2122"
         d="M 112.04875,28.913399 C 112.04875,24.899399 108.78275,21.634399 104.76975,21.634399 C 100.75675,21.634399 97.490753,24.900399 97.490753,28.913399 C 97.490753,32.926399 100.75675,36.192399 104.76975,36.192399 C 108.78275,36.192399 112.04875,32.927399 112.04875,28.913399 z " />
    </g>
  </g>
</svg>
