<?xml version="1.0" encoding="utf-8"?>
<!-- Generator: Adobe Illustrator 13.0.2, SVG Export Plug-In . SVG Version: 6.00 Build 14948)  -->
<!DOCTYPE svg PUBLIC "-//W3C//DTD SVG 1.1//EN" "http://www.w3.org/Graphics/SVG/1.1/DTD/svg11.dtd">
<svg version="1.1" id="Layer_1" xmlns="http://www.w3.org/2000/svg" xmlns:xlink="http://www.w3.org/1999/xlink" x="0px" y="0px"
	 width="758.189px" height="424.276px" viewBox="0 0 758.189 424.276" enable-background="new 0 0 758.189 424.276"
	 xml:space="preserve">
<g>
	<g>
		<polygon fill="#00B6DE" points="723.582,256.861 713.171,267.274 702.758,256.861 628.582,256.861 618.171,267.274 
			607.758,256.861 561.523,256.861 561.523,340.194 609.104,340.194 618.186,349.277 627.268,340.194 703.77,340.194 
			712.852,349.277 721.934,340.194 758.189,340.194 758.189,256.861 		"/>
	</g>
</g>
<g>
	<g>
		<polygon fill="#E6E6E6" points="718.452,272.658 712.837,278.274 707.221,272.658 676.557,272.658 676.557,333.657 
			706.983,333.657 713.055,339.729 719.128,333.657 751.557,333.657 751.557,272.658 		"/>
	</g>
</g>
<g>
	<g>
		<polygon fill="#E6E6E6" points="624.786,271.658 618.171,278.274 611.555,271.658 581.558,271.658 581.558,332.657 
			611.983,332.657 618.056,338.729 624.128,332.657 656.558,332.657 656.558,271.658 		"/>
	</g>
</g>
<g>
	<g>
		<polygon fill="#ED1849" points="722.166,349.277 712.504,358.941 702.84,349.277 670.523,349.277 670.523,424.276 
			757.523,424.276 757.523,349.277 		"/>
	</g>
</g>
<g>
	<g>
		<polygon fill="#ED1849" points="628.371,348.611 618.043,358.941 607.713,348.611 575.523,348.611 575.523,423.61 662.523,423.61 
			662.523,348.611 		"/>
	</g>
</g>
<g>
	<g>
		<polygon fill="#00B6DE" points="566.041,198.445 566.041,172.944 194.706,172.944 184.376,183.274 174.047,172.944 
			86.708,172.944 86.708,242.444 97.791,253.526 86.708,264.609 86.708,328.111 97.791,339.192 86.708,350.275 86.708,423.61 
			566.041,423.61 566.041,218.609 576.124,208.526 		"/>
	</g>
</g>
<g>
	<g>
		<polygon fill="#C1D82F" points="757.427,173.527 575.428,173.527 575.428,199.703 584.252,208.525 575.428,217.35 
			575.428,250.526 610.09,250.526 618.171,258.607 626.251,250.526 705.09,250.526 713.171,258.607 721.251,250.526 
			757.427,250.526 		"/>
	</g>
</g>
<g>
	<g>
		<polygon fill="#E6E6E6" points="324.759,244.442 318.688,238.37 318.688,211.015 324.759,204.942 318.688,198.87 318.688,190.444 
			237.688,190.444 237.688,369.226 238.043,368.871 245.113,375.942 238.043,383.014 237.688,382.659 237.688,407.444 
			318.688,407.444 318.688,398.015 324.759,391.942 318.688,385.87 318.688,352.015 324.759,345.942 318.688,339.87 
			318.688,289.015 324.759,282.942 318.688,276.87 318.688,250.515 		"/>
	</g>
</g>
<g>
	<g>
		<polygon fill="#E6E6E6" points="509.854,338.87 509.854,328.444 427.855,328.444 427.855,339.059 428.045,338.869 435.115,345.94 
			428.045,353.012 427.855,352.822 427.855,362.444 509.854,362.444 509.854,351.015 515.926,344.942 		"/>
	</g>
</g>
<g>
	<g>
		<polygon fill="#E6E6E6" points="509.854,383.87 509.854,373.444 427.855,373.444 427.855,383.059 428.045,382.869 435.115,389.94 
			428.045,397.012 427.855,396.822 427.855,407.444 509.854,407.444 509.854,396.015 515.926,389.942 		"/>
	</g>
</g>
<g>
	<g>
		<polygon fill="#E6E6E6" points="417.688,383.87 417.688,373.444 329.688,373.444 329.688,385.181 336.447,391.94 329.688,398.7 
			329.688,407.444 417.688,407.444 417.688,396.015 423.759,389.942 		"/>
	</g>
</g>
<g>
	<g>
		<polygon fill="#E6E6E6" points="417.688,339.202 417.688,328.444 329.688,328.444 329.688,338.515 336.447,345.274 
			329.688,352.034 329.688,362.444 417.688,362.444 417.688,351.347 423.759,345.274 		"/>
	</g>
</g>
<g>
	<g>
		<polygon fill="#4A4A30" points="258.611,133.944 251.543,141.013 244.474,133.944 192.111,133.944 185.043,141.013 
			177.974,133.944 125.111,133.944 118.043,141.013 110.974,133.944 86.834,133.944 86.834,166.944 178.263,166.944 
			184.834,173.514 191.403,166.944 281.833,166.944 281.833,133.944 		"/>
	</g>
</g>
<g>
	<g>
		<polygon fill="#E6E6E6" points="511.188,276.87 511.188,268.444 330.188,268.444 330.188,277.683 336.447,283.942 
			330.188,290.202 330.188,296.444 511.188,296.444 511.188,289.015 517.259,282.942 		"/>
	</g>
</g>
<g>
	<g>
		<polygon fill="#E6E6E6" points="511.188,238.37 511.188,229.944 330.188,229.944 330.188,239.016 336.447,245.276 
			330.188,251.536 330.188,257.944 511.188,257.944 511.188,250.515 517.259,244.442 		"/>
	</g>
</g>
<g>
	<g>
		<polygon fill="#E6E6E6" points="511.188,198.87 511.188,190.444 330.188,190.444 330.188,199.372 336.092,205.276 330.188,211.18 
			330.188,218.444 511.188,218.444 511.188,211.015 517.259,204.942 		"/>
	</g>
</g>
<g>
	<g>
		<polygon fill="#E6E6E6" points="225.188,369.37 225.188,342.944 190.445,342.944 184.043,349.348 177.639,342.944 
			144.188,342.944 144.188,406.944 225.188,406.944 225.188,381.515 231.259,375.442 		"/>
	</g>
</g>
<g>
	<g>
		<polygon fill="#E6E6E6" points="190.778,266.944 183.71,274.014 176.64,266.944 144.188,266.944 144.188,330.944 177.618,330.944 
			184.188,337.514 190.757,330.944 225.188,330.944 225.188,266.944 		"/>
	</g>
</g>
<g>
	<g>
		<polygon fill="#E6E6E6" points="191.445,190.944 184.376,198.014 177.306,190.944 143.688,190.944 143.688,254.944 
			177.118,254.944 183.688,261.514 190.257,254.944 224.688,254.944 224.688,190.944 		"/>
	</g>
</g>
<g>
	<g>
		<polygon fill="#4A4A30" points="87.259,254.109 81.188,248.037 81.188,221.611 0.188,221.611 0.188,285.61 81.188,285.61 
			81.188,260.181 		"/>
	</g>
</g>
<g>
	<g>
		<polygon fill="#7E8082" points="215.188,71.944 154.188,71.944 154.188,123.944 178.618,123.944 185.188,130.514 191.757,123.944 
			215.188,123.944 		"/>
	</g>
</g>
<rect x="126" y="147.278" fill="none" width="116.666" height="21.333"/>
<text transform="matrix(1 0 0 1 131.4863 155.7983)" fill="#FFFFFF" font-family="'MyriadPro-Regular'" font-size="12">Moblin Source Mirror</text>
<rect x="155.355" y="82.778" fill="none" width="58.666" height="40.667"/>
<text transform="matrix(1 0 0 1 167.0068 91.2974)"><tspan x="0" y="0" fill="#FFFFFF" font-family="'MyriadPro-Regular'" font-size="12">Moblin </tspan><tspan x="-2.28" y="14.4" fill="#FFFFFF" font-family="'MyriadPro-Regular'" font-size="12">Projects</tspan></text>
<g>
	<g>
		<polygon fill="#7E8082" points="281.688,71.944 220.688,71.944 220.688,123.944 245.118,123.944 251.688,130.514 258.257,123.944 
			281.688,123.944 		"/>
	</g>
</g>
<rect x="221.855" y="79.778" fill="none" width="58.666" height="40.667"/>
<text transform="matrix(1 0 0 1 226.667 88.2974)"><tspan x="0" y="0" fill="#FFFFFF" font-family="'MyriadPro-Regular'" font-size="12">Upstream </tspan><tspan x="10.884" y="14.4" fill="#FFFFFF" font-family="'MyriadPro-Regular'" font-size="12">SCMs </tspan><tspan x="0.084" y="28.8" fill="#FFFFFF" font-family="'MyriadPro-Regular'" font-size="12">(optional)</tspan></text>
<g>
	<g>
		<polygon fill="#7E8082" points="148.188,71.944 87.188,71.944 87.188,123.944 111.618,123.944 118.188,130.514 124.757,123.944 
			148.188,123.944 		"/>
	</g>
</g>
<rect x="88.355" y="82.778" fill="none" width="58.666" height="40.667"/>
<text transform="matrix(1 0 0 1 93.167 91.2974)"><tspan x="0" y="0" fill="#FFFFFF" font-family="'MyriadPro-Regular'" font-size="12">Upstream </tspan><tspan x="3.216" y="14.4" fill="#FFFFFF" font-family="'MyriadPro-Regular'" font-size="12">Releases</tspan></text>
<rect x="155.355" y="208.778" fill="none" width="58.666" height="40.667"/>
<text transform="matrix(1 0 0 1 167.4746 217.2974)"><tspan x="0" y="0" font-family="'MyriadPro-Regular'" font-size="12">Source </tspan><tspan x="-4.806" y="14.4" font-family="'MyriadPro-Regular'" font-size="12">Fetching</tspan></text>
<rect x="155.355" y="286.778" fill="none" width="58.666" height="40.666"/>
<text transform="matrix(1 0 0 1 170.6006 295.2979)"><tspan x="0" y="0" font-family="'MyriadPro-Regular'" font-size="12">Patch </tspan><tspan x="-14.826" y="14.399" font-family="'MyriadPro-Regular'" font-size="12">Application</tspan></text>
<rect x="147.355" y="350.778" fill="none" width="74.166" height="69.237"/>
<text transform="matrix(1 0 0 1 149.6689 359.2979)"><tspan x="0" y="0" font-family="'MyriadPro-Regular'" font-size="12">Configuration </tspan><tspan x="7.092" y="14.4" font-family="'MyriadPro-Regular'" font-size="12">/ Compile / </tspan><tspan x="-0.06" y="28.801" font-family="'MyriadPro-Regular'" font-size="12">Autoreconf as </tspan><tspan x="15.654" y="43.2" font-family="'MyriadPro-Regular'" font-size="12">needed</tspan></text>
<rect x="241.355" y="255.778" fill="none" width="74.166" height="89.237"/>
<text transform="matrix(1 0 0 1 260.3066 264.2983)"><tspan x="0" y="0" font-family="'MyriadPro-Regular'" font-size="12">Output </tspan><tspan x="-10.44" y="14.4" font-family="'MyriadPro-Regular'" font-size="12">Analysis for </tspan><tspan x="-2.928" y="28.8" font-family="'MyriadPro-Regular'" font-size="12">package </tspan><tspan x="-14.321" y="43.2" font-family="'MyriadPro-Regular'" font-size="12">splitting plus </tspan><tspan x="-2.928" y="57.6" font-family="'MyriadPro-Regular'" font-size="12">package </tspan><tspan x="-14.058" y="72" font-family="'MyriadPro-Regular'" font-size="12">relationships</tspan></text>
<rect x="359.334" y="198.778" fill="none" width="116.666" height="21.333"/>
<text transform="matrix(1 0 0 1 364.8804 207.2983)" font-family="'MyriadPro-Regular'" font-size="12">Raw .rpm Generation</text>
<rect x="359.334" y="238.278" fill="none" width="116.666" height="21.333"/>
<text transform="matrix(1 0 0 1 365.4565 246.7983)" font-family="'MyriadPro-Regular'" font-size="12">Raw .deb Generation</text>
<rect x="359.334" y="276.778" fill="none" width="116.666" height="21.333"/>
<text transform="matrix(1 0 0 1 367.6284 285.2979)" font-family="'MyriadPro-Regular'" font-size="12">Raw .ipk Generation</text>
<rect x="336.355" y="378.778" fill="none" width="77.166" height="30.237"/>
<text transform="matrix(1 0 0 1 338.4111 387.2979)"><tspan x="0" y="0" font-family="'MyriadPro-Regular'" font-size="12">Debian Source </tspan><tspan x="8.442" y="14.4" font-family="'MyriadPro-Regular'" font-size="12">Generation</tspan></text>
<rect x="339.855" y="332.778" fill="none" width="71.854" height="33.664"/>
<text transform="matrix(1 0 0 1 363.7163 341.2979)"><tspan x="0" y="0" font-family="'MyriadPro-Regular'" font-size="12">Spec </tspan><tspan x="-16.02" y="14.4" font-family="'MyriadPro-Regular'" font-size="12">Generation</tspan></text>
<rect x="436.168" y="332.778" fill="none" width="71.854" height="33.664"/>
<text transform="matrix(1 0 0 1 447.5664 341.2979)"><tspan x="0" y="0" font-family="'MyriadPro-Regular'" font-size="12">RPM from </tspan><tspan x="12.463" y="14.4" font-family="'MyriadPro-Regular'" font-size="12">Spec</tspan></text>
<rect x="430.855" y="378.778" fill="none" width="77.166" height="30.237"/>
<text transform="matrix(1 0 0 1 445.9551 387.2979)"><tspan x="0" y="0" font-family="'MyriadPro-Regular'" font-size="12">DEB from </tspan><tspan x="6.27" y="14.4" font-family="'MyriadPro-Regular'" font-size="12">Source</tspan></text>
<rect y="240.944" fill="none" width="81.666" height="39.334"/>
<text transform="matrix(1 0 0 1 29.6074 249.4639)"><tspan x="0" y="0" fill="#FFFFFF" font-family="'MyriadPro-Regular'" font-size="12">User</tspan><tspan x="-23.543" y="14.4" fill="#FFFFFF" font-family="'MyriadPro-Regular'" font-size="12">Configuration</tspan></text>
<g>
	<g>
		<polygon fill="#4A4A30" points="87.259,338.776 81.188,332.704 81.188,306.278 0.188,306.278 0.188,370.278 81.188,370.278 
			81.188,344.849 		"/>
	</g>
</g>
<rect y="319.112" fill="none" width="81.666" height="39.333"/>
<text transform="matrix(1 0 0 1 23.1514 327.6318)"><tspan x="0" y="0" fill="#FFFFFF" font-family="'MyriadPro-Regular'" font-size="12">Moblin </tspan><tspan x="-6.18" y="14.4" fill="#FFFFFF" font-family="'MyriadPro-Regular'" font-size="12">Metadata </tspan><tspan x="-19.607" y="28.8" fill="#FFFFFF" font-family="'MyriadPro-Regular'" font-size="12">(.bb + patches)</tspan></text>
<rect x="610.523" y="203.112" fill="none" width="112.186" height="20.163"/>
<text transform="matrix(1 0 0 1 629.8125 211.6318)" font-family="'MyriadPro-Regular'" font-size="12">Package Feeds</text>
<rect x="577.669" y="377.945" fill="none" width="81.666" height="39.332"/>
<text transform="matrix(1 0 0 1 600.4365 386.4639)" fill="#FFFFFF" font-family="'MyriadPro-Regular'" font-size="12">Images</text>
<rect x="581.835" y="287.779" fill="none" width="71.854" height="33.664"/>
<text transform="matrix(1 0 0 1 602.0723 296.2998)"><tspan x="0" y="0" font-family="'MyriadPro-Regular'" font-size="12">Image </tspan><tspan x="-12.396" y="14.399" font-family="'MyriadPro-Regular'" font-size="12">Generation</tspan></text>
<rect x="676.521" y="286.779" fill="none" width="77.166" height="30.237"/>
<text transform="matrix(1 0 0 1 704.8984 295.2998)"><tspan x="0" y="0" font-family="'MyriadPro-Regular'" font-size="12">SDK </tspan><tspan x="-17.879" y="14.399" font-family="'MyriadPro-Regular'" font-size="12">Generation</tspan></text>
<rect x="379.001" y="158.778" fill="none" width="199.04" height="21.164"/>
<text transform="matrix(1 0 0 1 392.8062 167.2983)" fill="#333333" font-family="'MyriadPro-Regular'" font-size="12">Poky Build and Integration System</text>
<rect x="8.001" y="1.779" fill="none" width="512.708" height="45.164"/>
<text transform="matrix(1 0 0 1 8.001 11.7183)" fill="#333333" font-family="'MyriadPro-Regular'" font-size="14">Generation of Moblin in a non-Moblin Environment</text>
<rect x="673.336" y="376.611" fill="none" width="81.666" height="39.332"/>
<text transform="matrix(1 0 0 1 685.6816 385.1299)"><tspan x="0" y="0" fill="#FFFFFF" font-family="'MyriadPro-Regular'" font-size="12">Standalone</tspan><tspan x="18.281" y="14.4" fill="#FFFFFF" font-family="'MyriadPro-Regular'" font-size="12">SDK</tspan></text>
</svg>
