<?xml version="1.0" encoding="UTF-8" standalone="no"?>
<!-- Generator: Adobe Illustrator 13.0.2, SVG Export Plug-In . SVG Version: 6.00 Build 14948)  -->
<svg
   xmlns:dc="http://purl.org/dc/elements/1.1/"
   xmlns:cc="http://creativecommons.org/ns#"
   xmlns:rdf="http://www.w3.org/1999/02/22-rdf-syntax-ns#"
   xmlns:svg="http://www.w3.org/2000/svg"
   xmlns="http://www.w3.org/2000/svg"
   xmlns:sodipodi="http://sodipodi.sourceforge.net/DTD/sodipodi-0.dtd"
   xmlns:inkscape="http://www.inkscape.org/namespaces/inkscape"
   version="1.1"
   id="Layer_1"
   x="0px"
   y="0px"
   width="758.189px"
   height="424.276px"
   viewBox="0 0 758.189 424.276"
   enable-background="new 0 0 758.189 424.276"
   xml:space="preserve"
   sodipodi:version="0.32"
   inkscape:version="0.46"
   inkscape:output_extension="org.inkscape.output.svg.inkscape"
   sodipodi:docname="Pokyarch_diag2.svg"><metadata
   id="metadata3075"><rdf:RDF><cc:Work
       rdf:about=""><dc:format>image/svg+xml</dc:format><dc:type
         rdf:resource="http://purl.org/dc/dcmitype/StillImage" /></cc:Work></rdf:RDF></metadata><defs
   id="defs3073"><inkscape:perspective
     sodipodi:type="inkscape:persp3d"
     inkscape:vp_x="0 : 212.138 : 1"
     inkscape:vp_y="0 : 1000 : 0"
     inkscape:vp_z="758.18903 : 212.138 : 1"
     inkscape:persp3d-origin="379.09451 : 141.42533 : 1"
     id="perspective3077" /></defs><sodipodi:namedview
   inkscape:window-height="932"
   inkscape:window-width="1630"
   inkscape:pageshadow="2"
   inkscape:pageopacity="0.0"
   guidetolerance="10.0"
   gridtolerance="10.0"
   objecttolerance="10.0"
   borderopacity="1.0"
   bordercolor="#666666"
   pagecolor="#ffffff"
   id="base"
   showgrid="false"
   inkscape:zoom="2.0293941"
   inkscape:cx="363.02354"
   inkscape:cy="113.58642"
   inkscape:window-x="0"
   inkscape:window-y="27"
   inkscape:current-layer="Layer_1" />
<g
   id="g2752"
   transform="translate(18.7248,0.9855158)">
	<g
   id="g2754">
		<polygon
   points="723.582,256.861 713.171,267.274 702.758,256.861 628.582,256.861 618.171,267.274 607.758,256.861 561.523,256.861 561.523,340.194 609.104,340.194 618.186,349.277 627.268,340.194 703.77,340.194 712.852,349.277 721.934,340.194 758.189,340.194 758.189,256.861 723.582,256.861 "
   id="polygon2756"
   style="fill:#00b6de" />
	</g>
</g>
<g
   id="g2758"
   transform="translate(18.7248,0.9855158)">
	<g
   id="g2760">
		<polygon
   points="718.452,272.658 712.837,278.274 707.221,272.658 676.557,272.658 676.557,333.657 706.983,333.657 713.055,339.729 719.128,333.657 751.557,333.657 751.557,272.658 718.452,272.658 "
   id="polygon2762"
   style="fill:#e6e6e6" />
	</g>
</g>
<g
   id="g2764"
   transform="translate(18.7248,0.9855158)">
	<g
   id="g2766">
		<polygon
   points="624.786,271.658 618.171,278.274 611.555,271.658 581.558,271.658 581.558,332.657 611.983,332.657 618.056,338.729 624.128,332.657 656.558,332.657 656.558,271.658 624.786,271.658 "
   id="polygon2768"
   style="fill:#e6e6e6" />
	</g>
</g>
<g
   id="g2770"
   transform="translate(18.7248,0.9855158)">
	<g
   id="g2772">
		<polygon
   points="722.166,349.277 712.504,358.941 702.84,349.277 670.523,349.277 670.523,424.276 757.523,424.276 757.523,349.277 722.166,349.277 "
   id="polygon2774"
   style="fill:#ed1849" />
	</g>
</g>
<g
   id="g2776"
   transform="translate(18.7248,0.9855158)">
	<g
   id="g2778">
		<polygon
   points="628.371,348.611 618.043,358.941 607.713,348.611 575.523,348.611 575.523,423.61 662.523,423.61 662.523,348.611 628.371,348.611 "
   id="polygon2780"
   style="fill:#ed1849" />
	</g>
</g>
<g
   id="g2782"
   transform="translate(18.7248,0.9855158)">
	<g
   id="g2784">
		<polygon
   points="566.041,198.445 566.041,172.944 194.706,172.944 184.376,183.274 174.047,172.944 86.708,172.944 86.708,242.444 97.791,253.526 86.708,264.609 86.708,328.111 97.791,339.192 86.708,350.275 86.708,423.61 566.041,423.61 566.041,218.609 576.124,208.526 566.041,198.445 "
   id="polygon2786"
   style="fill:#00b6de" />
	</g>
</g>
<g
   id="g2788"
   transform="translate(18.7248,0.9855158)">
	<g
   id="g2790">
		<polygon
   points="757.427,173.527 575.428,173.527 575.428,199.703 584.252,208.525 575.428,217.35 575.428,250.526 610.09,250.526 618.171,258.607 626.251,250.526 705.09,250.526 713.171,258.607 721.251,250.526 757.427,250.526 757.427,173.527 "
   id="polygon2792"
   style="fill:#c1d82f" />
	</g>
</g>
<g
   id="g2794"
   transform="translate(18.7248,0.9855158)">
	<g
   id="g2796">
		<polygon
   points="324.759,244.442 318.688,238.37 318.688,211.015 324.759,204.942 318.688,198.87 318.688,190.444 237.688,190.444 237.688,369.226 238.043,368.871 245.113,375.942 238.043,383.014 237.688,382.659 237.688,407.444 318.688,407.444 318.688,398.015 324.759,391.942 318.688,385.87 318.688,352.015 324.759,345.942 318.688,339.87 318.688,289.015 324.759,282.942 318.688,276.87 318.688,250.515 324.759,244.442 "
   id="polygon2798"
   style="fill:#e6e6e6" />
	</g>
</g>
<g
   id="g2800"
   transform="translate(18.7248,0.9855158)">
	<g
   id="g2802">
		<polygon
   points="509.854,338.87 509.854,328.444 427.855,328.444 427.855,339.059 428.045,338.869 435.115,345.94 428.045,353.012 427.855,352.822 427.855,362.444 509.854,362.444 509.854,351.015 515.926,344.942 509.854,338.87 "
   id="polygon2804"
   style="fill:#e6e6e6" />
	</g>
</g>
<g
   id="g2806"
   transform="translate(18.7248,0.9855158)">
	<g
   id="g2808">
		<polygon
   points="509.854,383.87 509.854,373.444 427.855,373.444 427.855,383.059 428.045,382.869 435.115,389.94 428.045,397.012 427.855,396.822 427.855,407.444 509.854,407.444 509.854,396.015 515.926,389.942 509.854,383.87 "
   id="polygon2810"
   style="fill:#e6e6e6" />
	</g>
</g>
<g
   id="g2812"
   transform="translate(18.7248,0.9855158)">
	<g
   id="g2814">
		<polygon
   points="417.688,383.87 417.688,373.444 329.688,373.444 329.688,385.181 336.447,391.94 329.688,398.7 329.688,407.444 417.688,407.444 417.688,396.015 423.759,389.942 417.688,383.87 "
   id="polygon2816"
   style="fill:#e6e6e6" />
	</g>
</g>
<g
   id="g2818"
   transform="translate(18.7248,0.9855158)">
	<g
   id="g2820">
		<polygon
   points="417.688,339.202 417.688,328.444 329.688,328.444 329.688,338.515 336.447,345.274 329.688,352.034 329.688,362.444 417.688,362.444 417.688,351.347 423.759,345.274 417.688,339.202 "
   id="polygon2822"
   style="fill:#e6e6e6" />
	</g>
</g>
<g
   id="g2824"
   transform="translate(18.7248,0.9855158)">
	<g
   id="g2826">
		<polygon
   points="258.611,133.944 251.543,141.013 244.474,133.944 192.111,133.944 185.043,141.013 177.974,133.944 125.111,133.944 118.043,141.013 110.974,133.944 86.834,133.944 86.834,166.944 178.263,166.944 184.834,173.514 191.403,166.944 281.833,166.944 281.833,133.944 258.611,133.944 "
   id="polygon2828"
   style="fill:#4a4a30" />
	</g>
</g>
<g
   id="g2830"
   transform="translate(18.7248,0.9855158)">
	<g
   id="g2832">
		<polygon
   points="511.188,276.87 511.188,268.444 330.188,268.444 330.188,277.683 336.447,283.942 330.188,290.202 330.188,296.444 511.188,296.444 511.188,289.015 517.259,282.942 511.188,276.87 "
   id="polygon2834"
   style="fill:#e6e6e6" />
	</g>
</g>
<g
   id="g2836"
   transform="translate(18.7248,0.9855158)">
	<g
   id="g2838">
		<polygon
   points="511.188,238.37 511.188,229.944 330.188,229.944 330.188,239.016 336.447,245.276 330.188,251.536 330.188,257.944 511.188,257.944 511.188,250.515 517.259,244.442 511.188,238.37 "
   id="polygon2840"
   style="fill:#e6e6e6" />
	</g>
</g>
<g
   id="g2842"
   transform="translate(18.7248,0.9855158)">
	<g
   id="g2844">
		<polygon
   points="511.188,198.87 511.188,190.444 330.188,190.444 330.188,199.372 336.092,205.276 330.188,211.18 330.188,218.444 511.188,218.444 511.188,211.015 517.259,204.942 511.188,198.87 "
   id="polygon2846"
   style="fill:#e6e6e6" />
	</g>
</g>
<g
   id="g2848"
   transform="translate(18.7248,0.9855158)">
	<g
   id="g2850">
		<polygon
   points="225.188,369.37 225.188,342.944 190.445,342.944 184.043,349.348 177.639,342.944 144.188,342.944 144.188,406.944 225.188,406.944 225.188,381.515 231.259,375.442 225.188,369.37 "
   id="polygon2852"
   style="fill:#e6e6e6" />
	</g>
</g>
<g
   id="g2854"
   transform="translate(18.7248,0.9855158)">
	<g
   id="g2856">
		<polygon
   points="190.778,266.944 183.71,274.014 176.64,266.944 144.188,266.944 144.188,330.944 177.618,330.944 184.188,337.514 190.757,330.944 225.188,330.944 225.188,266.944 190.778,266.944 "
   id="polygon2858"
   style="fill:#e6e6e6" />
	</g>
</g>
<g
   id="g2860"
   transform="translate(18.7248,0.9855158)">
	<g
   id="g2862">
		<polygon
   points="191.445,190.944 184.376,198.014 177.306,190.944 143.688,190.944 143.688,254.944 177.118,254.944 183.688,261.514 190.257,254.944 224.688,254.944 224.688,190.944 191.445,190.944 "
   id="polygon2864"
   style="fill:#e6e6e6" />
	</g>
</g>
<g
   id="g2866"
   transform="translate(18.7248,0.9855158)">
	<g
   id="g2868">
		<polygon
   points="87.259,254.109 81.188,248.037 81.188,221.611 0.188,221.611 0.188,285.61 81.188,285.61 81.188,260.181 87.259,254.109 "
   id="polygon2870"
   style="fill:#4a4a30" />
	</g>
</g>
<g
   id="g2872"
   transform="translate(18.7248,0.9855158)">
	<g
   id="g2874">
		<polygon
   points="215.188,71.944 154.188,71.944 154.188,123.944 178.618,123.944 185.188,130.514 191.757,123.944 215.188,123.944 215.188,71.944 "
   id="polygon2876"
   style="fill:#7e8082" />
	</g>
</g>
<rect
   x="144.72481"
   y="148.26352"
   width="116.666"
   height="21.333"
   id="rect2878"
   style="fill:none" />
<text
   font-size="12"
   id="text2880"
   x="139.37044"
   y="156.78381"
   style="font-size:12px;fill:#ffffff;font-family:MyriadPro-Regular">Moblin Source Mirror</text>


<rect
   x="174.0798"
   y="83.763519"
   width="58.666"
   height="40.667"
   id="rect2882"
   style="fill:none" />
<text
   id="text2884"
   x="181.80087"
   y="95.464226"><tspan
     x="181.80087"
     y="95.464226"
     font-size="12"
     id="tspan2886"
     style="font-size:12px;fill:#ffffff;font-family:MyriadPro-Regular">Moblin </tspan><tspan
     x="179.52087"
     y="109.86423"
     font-size="12"
     id="tspan2888"
     style="font-size:12px;fill:#ffffff;font-family:MyriadPro-Regular">Projects</tspan></text>


<g
   id="g2890"
   transform="translate(18.7248,0.9855158)">
	<g
   id="g2892">
		<polygon
   points="281.688,71.944 220.688,71.944 220.688,123.944 245.118,123.944 251.688,130.514 258.257,123.944 281.688,123.944 281.688,71.944 "
   id="polygon2894"
   style="fill:#7e8082" />
	</g>
</g>
<rect
   x="240.5798"
   y="80.763519"
   width="58.666"
   height="40.667"
   id="rect2896"
   style="fill:none" />
<text
   id="text2898"
   x="240.46423"
   y="89.775673"><tspan
     x="240.46423"
     y="89.775673"
     font-size="12"
     id="tspan2900"
     style="font-size:12px;fill:#ffffff;font-family:MyriadPro-Regular">Upstream </tspan><tspan
     x="251.34822"
     y="104.17568"
     font-size="12"
     id="tspan2902"
     style="font-size:12px;fill:#ffffff;font-family:MyriadPro-Regular">SCMs </tspan><tspan
     x="240.54823"
     y="118.57568"
     font-size="12"
     id="tspan2904"
     style="font-size:12px;fill:#ffffff;font-family:MyriadPro-Regular">(optional)</tspan></text>


<g
   id="g2906"
   transform="translate(18.7248,0.9855158)">
	<g
   id="g2908">
		<polygon
   points="148.188,71.944 87.188,71.944 87.188,123.944 111.618,123.944 118.188,130.514 124.757,123.944 148.188,123.944 148.188,71.944 "
   id="polygon2910"
   style="fill:#7e8082" />
	</g>
</g>
<rect
   x="107.0798"
   y="83.763519"
   width="58.666"
   height="40.667"
   id="rect2912"
   style="fill:none" />
<text
   id="text2914"
   x="107.45698"
   y="94.746704"><tspan
     x="107.45698"
     y="94.746704"
     font-size="12"
     id="tspan2916"
     style="font-size:12px;fill:#ffffff;font-family:MyriadPro-Regular">Upstream </tspan><tspan
     x="110.67298"
     y="109.14671"
     font-size="12"
     id="tspan2918"
     style="font-size:12px;fill:#ffffff;font-family:MyriadPro-Regular">Releases</tspan></text>


<rect
   x="174.0798"
   y="209.76352"
   width="58.666"
   height="40.667"
   id="rect2920"
   style="fill:none" />
<text
   id="text2922"
   x="183.73561"
   y="220.7467"><tspan
     x="183.73561"
     y="220.7467"
     font-size="12"
     id="tspan2924"
     style="font-size:12px;font-family:MyriadPro-Regular">Source </tspan><tspan
     x="178.92961"
     y="235.14671"
     font-size="12"
     id="tspan2926"
     style="font-size:12px;font-family:MyriadPro-Regular">Fetching</tspan></text>


<rect
   x="174.0798"
   y="287.76352"
   width="58.666"
   height="40.666"
   id="rect2928"
   style="fill:none" />
<text
   id="text2930"
   x="189.32541"
   y="296.28342"><tspan
     x="189.32541"
     y="296.28342"
     font-size="12"
     id="tspan2932"
     style="font-size:12px;font-family:MyriadPro-Regular">Patch </tspan><tspan
     x="174.4994"
     y="310.6824"
     font-size="12"
     id="tspan2934"
     style="font-size:12px;font-family:MyriadPro-Regular">Application</tspan></text>


<rect
   x="166.0798"
   y="351.76352"
   width="74.166"
   height="69.237"
   id="rect2936"
   style="fill:none" />
<text
   id="text2938"
   x="168.39371"
   y="360.28342"><tspan
     x="168.39371"
     y="360.28342"
     font-size="12"
     id="tspan2940"
     style="font-size:12px;font-family:MyriadPro-Regular">Configuration </tspan><tspan
     x="175.4857"
     y="374.68341"
     font-size="12"
     id="tspan2942"
     style="font-size:12px;font-family:MyriadPro-Regular">/ Compile / </tspan><tspan
     x="168.33371"
     y="389.08441"
     font-size="12"
     id="tspan2944"
     style="font-size:12px;font-family:MyriadPro-Regular">Autoreconf as </tspan><tspan
     x="184.04771"
     y="403.48343"
     font-size="12"
     id="tspan2946"
     style="font-size:12px;font-family:MyriadPro-Regular">needed</tspan></text>


<rect
   x="260.0798"
   y="256.76352"
   width="74.166"
   height="89.237"
   id="rect2948"
   style="fill:none" />
<text
   id="text2950"
   x="279.0314"
   y="265.28381"><tspan
     x="279.0314"
     y="265.28381"
     font-size="12"
     id="tspan2952"
     style="font-size:12px;font-family:MyriadPro-Regular">Output </tspan><tspan
     x="268.5914"
     y="279.68381"
     font-size="12"
     id="tspan2954"
     style="font-size:12px;font-family:MyriadPro-Regular">Analysis for </tspan><tspan
     x="276.10339"
     y="294.0838"
     font-size="12"
     id="tspan2956"
     style="font-size:12px;font-family:MyriadPro-Regular">package </tspan><tspan
     x="264.71039"
     y="308.48383"
     font-size="12"
     id="tspan2958"
     style="font-size:12px;font-family:MyriadPro-Regular">splitting plus </tspan><tspan
     x="276.10339"
     y="322.88382"
     font-size="12"
     id="tspan2960"
     style="font-size:12px;font-family:MyriadPro-Regular">package </tspan><tspan
     x="264.97339"
     y="337.28381"
     font-size="12"
     id="tspan2962"
     style="font-size:12px;font-family:MyriadPro-Regular">relationships</tspan></text>


<rect
   x="378.05881"
   y="199.76352"
   width="116.666"
   height="21.333"
   id="rect2964"
   style="fill:none" />
<text
   font-size="12"
   id="text2966"
   x="383.60519"
   y="208.28381"
   style="font-size:12px;font-family:MyriadPro-Regular">Raw .rpm Generation</text>


<rect
   x="378.05881"
   y="239.26352"
   width="116.666"
   height="21.333"
   id="rect2968"
   style="fill:none" />
<text
   font-size="12"
   id="text2970"
   x="384.1813"
   y="247.78381"
   style="font-size:12px;font-family:MyriadPro-Regular">Raw .deb Generation</text>


<rect
   x="378.05881"
   y="277.76352"
   width="116.666"
   height="21.333"
   id="rect2972"
   style="fill:none" />
<text
   font-size="12"
   id="text2974"
   x="386.35318"
   y="286.28342"
   style="font-size:12px;font-family:MyriadPro-Regular">Raw .ipk Generation</text>


<rect
   x="355.0798"
   y="379.76352"
   width="77.166"
   height="30.237"
   id="rect2976"
   style="fill:none" />
<text
   id="text2978"
   x="357.13589"
   y="388.28342"><tspan
     x="357.13589"
     y="388.28342"
     font-size="12"
     id="tspan2980"
     style="font-size:12px;font-family:MyriadPro-Regular">Debian Source </tspan><tspan
     x="365.57788"
     y="402.68341"
     font-size="12"
     id="tspan2982"
     style="font-size:12px;font-family:MyriadPro-Regular">Generation</tspan></text>


<rect
   x="358.5798"
   y="333.76352"
   width="71.853996"
   height="33.664001"
   id="rect2984"
   style="fill:none" />
<text
   id="text2986"
   x="382.4411"
   y="342.28342"><tspan
     x="382.4411"
     y="342.28342"
     font-size="12"
     id="tspan2988"
     style="font-size:12px;font-family:MyriadPro-Regular">Spec </tspan><tspan
     x="366.42108"
     y="356.68341"
     font-size="12"
     id="tspan2990"
     style="font-size:12px;font-family:MyriadPro-Regular">Generation</tspan></text>


<rect
   x="454.89279"
   y="333.76352"
   width="71.853996"
   height="33.664001"
   id="rect2992"
   style="fill:none" />
<text
   id="text2994"
   x="466.2912"
   y="342.28342"><tspan
     x="466.2912"
     y="342.28342"
     font-size="12"
     id="tspan2996"
     style="font-size:12px;font-family:MyriadPro-Regular">RPM from </tspan><tspan
     x="478.75418"
     y="356.68341"
     font-size="12"
     id="tspan2998"
     style="font-size:12px;font-family:MyriadPro-Regular">Spec</tspan></text>


<rect
   x="449.5798"
   y="379.76352"
   width="77.166"
   height="30.237"
   id="rect3000"
   style="fill:none" />
<text
   id="text3002"
   x="464.6799"
   y="388.28342"><tspan
     x="464.6799"
     y="388.28342"
     font-size="12"
     id="tspan3004"
     style="font-size:12px;font-family:MyriadPro-Regular">DEB from </tspan><tspan
     x="470.94989"
     y="402.68341"
     font-size="12"
     id="tspan3006"
     style="font-size:12px;font-family:MyriadPro-Regular">Source</tspan></text>


<rect
   y="241.92952"
   width="81.666"
   height="39.334"
   id="rect3008"
   x="18.7248"
   style="fill:none" />
<text
   id="text3010"
   x="41.92635"
   y="249.95667"><tspan
     x="41.92635"
     y="249.95667"
     font-size="12"
     id="tspan3012"
     style="font-size:12px;fill:#ffffff;font-family:MyriadPro-Regular">User</tspan><tspan
     x="18.383348"
     y="264.35666"
     font-size="12"
     id="tspan3014"
     style="font-size:12px;fill:#ffffff;font-family:MyriadPro-Regular">Configuration</tspan></text>


<g
   id="g3016"
   transform="translate(18.7248,0.9855158)">
	<g
   id="g3018">
		<polygon
   points="87.259,338.776 81.188,332.704 81.188,306.278 0.188,306.278 0.188,370.278 81.188,370.278 81.188,344.849 87.259,338.776 "
   id="polygon3020"
   style="fill:#4a4a30" />
	</g>
</g>
<rect
   y="320.0975"
   width="81.666"
   height="39.333"
   id="rect3022"
   x="18.7248"
   style="fill:none" />


<rect
   x="629.2478"
   y="204.09752"
   width="112.186"
   height="20.163"
   id="rect3032"
   style="fill:none" />
<text
   font-size="12"
   id="text3034"
   x="648.53729"
   y="212.61731"
   style="font-size:12px;font-family:MyriadPro-Regular">Package Feeds</text>


<rect
   x="596.3938"
   y="378.93051"
   width="81.666"
   height="39.332001"
   id="rect3036"
   style="fill:none" />
<text
   font-size="12"
   id="text3038"
   x="619.16132"
   y="387.4494"
   style="font-size:12px;fill:#ffffff;font-family:MyriadPro-Regular">Images</text>


<rect
   x="600.55981"
   y="288.7645"
   width="71.853996"
   height="33.664001"
   id="rect3040"
   style="fill:none" />
<text
   id="text3042"
   x="620.79712"
   y="297.28531"><tspan
     x="620.79712"
     y="297.28531"
     font-size="12"
     id="tspan3044"
     style="font-size:12px;font-family:MyriadPro-Regular">Image </tspan><tspan
     x="608.40112"
     y="311.68433"
     font-size="12"
     id="tspan3046"
     style="font-size:12px;font-family:MyriadPro-Regular">Generation</tspan></text>


<rect
   x="695.24579"
   y="287.7645"
   width="77.166"
   height="30.237"
   id="rect3048"
   style="fill:none" />
<text
   id="text3050"
   x="723.62323"
   y="296.28531"><tspan
     x="723.62323"
     y="296.28531"
     font-size="12"
     id="tspan3052"
     style="font-size:12px;font-family:MyriadPro-Regular">SDK </tspan><tspan
     x="705.7442"
     y="310.68433"
     font-size="12"
     id="tspan3054"
     style="font-size:12px;font-family:MyriadPro-Regular">Generation</tspan></text>


<rect
   x="397.7258"
   y="159.76352"
   width="199.03999"
   height="21.164"
   id="rect3056"
   style="fill:none" />
<text
   font-size="12"
   id="text3058"
   x="411.53101"
   y="168.28381"
   style="font-size:12px;fill:#333333;font-family:MyriadPro-Regular">Poky Build and Integration System</text>


<rect
   x="26.7258"
   y="2.7645159"
   width="512.70801"
   height="45.164001"
   id="rect3060"
   style="fill:none" />
<text
   font-size="14"
   id="text3062"
   x="26.7258"
   y="12.703815"
   style="font-size:14px;fill:#333333;font-family:MyriadPro-Regular">Generation of Moblin in a non-Moblin Environment</text>


<rect
   x="692.06079"
   y="377.5965"
   width="81.666"
   height="39.332001"
   id="rect3064"
   style="fill:none" />
<text
   id="text3066"
   x="704.40643"
   y="386.11542"><tspan
     x="704.40643"
     y="386.11542"
     font-size="12"
     id="tspan3068"
     style="font-size:12px;fill:#ffffff;font-family:MyriadPro-Regular">Standalone</tspan><tspan
     x="722.68744"
     y="400.51541"
     font-size="12"
     id="tspan3070"
     style="font-size:12px;fill:#ffffff;font-family:MyriadPro-Regular">SDK</tspan></text>


<g
   transform="translate(18.7248,0.9855158)"
   id="g3087">
	<g
   id="g3089">
		<polygon
   style="fill:#00b6de"
   id="polygon3091"
   points="723.582,256.861 713.171,267.274 702.758,256.861 628.582,256.861 618.171,267.274 607.758,256.861 561.523,256.861 561.523,340.194 609.104,340.194 618.186,349.277 627.268,340.194 703.77,340.194 712.852,349.277 721.934,340.194 758.189,340.194 758.189,256.861 723.582,256.861 " />
	</g>
</g><g
   transform="translate(18.7248,0.9855158)"
   id="g3093">
	<g
   id="g3095">
		<polygon
   style="fill:#e6e6e6"
   id="polygon3097"
   points="718.452,272.658 712.837,278.274 707.221,272.658 676.557,272.658 676.557,333.657 706.983,333.657 713.055,339.729 719.128,333.657 751.557,333.657 751.557,272.658 718.452,272.658 " />
	</g>
</g><g
   transform="translate(18.7248,0.9855158)"
   id="g3099">
	<g
   id="g3101">
		<polygon
   style="fill:#e6e6e6"
   id="polygon3103"
   points="624.786,271.658 618.171,278.274 611.555,271.658 581.558,271.658 581.558,332.657 611.983,332.657 618.056,338.729 624.128,332.657 656.558,332.657 656.558,271.658 624.786,271.658 " />
	</g>
</g><g
   transform="translate(18.7248,0.9855158)"
   id="g3105">
	<g
   id="g3107">
		<polygon
   style="fill:#ed1849"
   id="polygon3109"
   points="722.166,349.277 712.504,358.941 702.84,349.277 670.523,349.277 670.523,424.276 757.523,424.276 757.523,349.277 722.166,349.277 " />
	</g>
</g><g
   transform="translate(18.7248,0.9855158)"
   id="g3111">
	<g
   id="g3113">
		<polygon
   style="fill:#ed1849"
   id="polygon3115"
   points="628.371,348.611 618.043,358.941 607.713,348.611 575.523,348.611 575.523,423.61 662.523,423.61 662.523,348.611 628.371,348.611 " />
	</g>
</g><g
   transform="translate(18.7248,0.9855158)"
   id="g3117">
	<g
   id="g3119">
		<polygon
   style="fill:#00b6de"
   id="polygon3121"
   points="566.041,198.445 566.041,172.944 194.706,172.944 184.376,183.274 174.047,172.944 86.708,172.944 86.708,242.444 97.791,253.526 86.708,264.609 86.708,328.111 97.791,339.192 86.708,350.275 86.708,423.61 566.041,423.61 566.041,218.609 576.124,208.526 566.041,198.445 " />
	</g>
</g><g
   transform="translate(18.7248,0.9855158)"
   id="g3123">
	<g
   id="g3125">
		<polygon
   style="fill:#c1d82f"
   id="polygon3127"
   points="757.427,173.527 575.428,173.527 575.428,199.703 584.252,208.525 575.428,217.35 575.428,250.526 610.09,250.526 618.171,258.607 626.251,250.526 705.09,250.526 713.171,258.607 721.251,250.526 757.427,250.526 757.427,173.527 " />
	</g>
</g><g
   transform="translate(18.7248,0.9855158)"
   id="g3129">
	<g
   id="g3131">
		<polygon
   style="fill:#e6e6e6"
   id="polygon3133"
   points="324.759,244.442 318.688,238.37 318.688,211.015 324.759,204.942 318.688,198.87 318.688,190.444 237.688,190.444 237.688,369.226 238.043,368.871 245.113,375.942 238.043,383.014 237.688,382.659 237.688,407.444 318.688,407.444 318.688,398.015 324.759,391.942 318.688,385.87 318.688,352.015 324.759,345.942 318.688,339.87 318.688,289.015 324.759,282.942 318.688,276.87 318.688,250.515 324.759,244.442 " />
	</g>
</g><g
   transform="translate(18.7248,0.9855158)"
   id="g3135">
	<g
   id="g3137">
		<polygon
   style="fill:#e6e6e6"
   id="polygon3139"
   points="509.854,338.87 509.854,328.444 427.855,328.444 427.855,339.059 428.045,338.869 435.115,345.94 428.045,353.012 427.855,352.822 427.855,362.444 509.854,362.444 509.854,351.015 515.926,344.942 509.854,338.87 " />
	</g>
</g><g
   transform="translate(18.7248,0.9855158)"
   id="g3141">
	<g
   id="g3143">
		<polygon
   style="fill:#e6e6e6"
   id="polygon3145"
   points="509.854,383.87 509.854,373.444 427.855,373.444 427.855,383.059 428.045,382.869 435.115,389.94 428.045,397.012 427.855,396.822 427.855,407.444 509.854,407.444 509.854,396.015 515.926,389.942 509.854,383.87 " />
	</g>
</g><g
   transform="translate(18.7248,0.9855158)"
   id="g3147">
	<g
   id="g3149">
		<polygon
   style="fill:#e6e6e6"
   id="polygon3151"
   points="417.688,383.87 417.688,373.444 329.688,373.444 329.688,385.181 336.447,391.94 329.688,398.7 329.688,407.444 417.688,407.444 417.688,396.015 423.759,389.942 417.688,383.87 " />
	</g>
</g><g
   transform="translate(18.7248,0.9855158)"
   id="g3153">
	<g
   id="g3155">
		<polygon
   style="fill:#e6e6e6"
   id="polygon3157"
   points="417.688,339.202 417.688,328.444 329.688,328.444 329.688,338.515 336.447,345.274 329.688,352.034 329.688,362.444 417.688,362.444 417.688,351.347 423.759,345.274 417.688,339.202 " />
	</g>
</g><g
   transform="translate(18.7248,0.9855158)"
   id="g3159">
	<g
   id="g3161">
		<polygon
   style="fill:#4a4a30"
   id="polygon3163"
   points="258.611,133.944 251.543,141.013 244.474,133.944 192.111,133.944 185.043,141.013 177.974,133.944 125.111,133.944 118.043,141.013 110.974,133.944 86.834,133.944 86.834,166.944 178.263,166.944 184.834,173.514 191.403,166.944 281.833,166.944 281.833,133.944 258.611,133.944 " />
	</g>
</g><g
   transform="translate(18.7248,0.9855158)"
   id="g3165">
	<g
   id="g3167">
		<polygon
   style="fill:#e6e6e6"
   id="polygon3169"
   points="511.188,276.87 511.188,268.444 330.188,268.444 330.188,277.683 336.447,283.942 330.188,290.202 330.188,296.444 511.188,296.444 511.188,289.015 517.259,282.942 511.188,276.87 " />
	</g>
</g><g
   transform="translate(18.7248,0.9855158)"
   id="g3171">
	<g
   id="g3173">
		<polygon
   style="fill:#e6e6e6"
   id="polygon3175"
   points="511.188,238.37 511.188,229.944 330.188,229.944 330.188,239.016 336.447,245.276 330.188,251.536 330.188,257.944 511.188,257.944 511.188,250.515 517.259,244.442 511.188,238.37 " />
	</g>
</g><g
   transform="translate(18.7248,0.9855158)"
   id="g3177">
	<g
   id="g3179">
		<polygon
   style="fill:#e6e6e6"
   id="polygon3181"
   points="511.188,198.87 511.188,190.444 330.188,190.444 330.188,199.372 336.092,205.276 330.188,211.18 330.188,218.444 511.188,218.444 511.188,211.015 517.259,204.942 511.188,198.87 " />
	</g>
</g><g
   transform="translate(18.7248,0.9855158)"
   id="g3183">
	<g
   id="g3185">
		<polygon
   style="fill:#e6e6e6"
   id="polygon3187"
   points="225.188,369.37 225.188,342.944 190.445,342.944 184.043,349.348 177.639,342.944 144.188,342.944 144.188,406.944 225.188,406.944 225.188,381.515 231.259,375.442 225.188,369.37 " />
	</g>
</g><g
   transform="translate(18.7248,0.9855158)"
   id="g3189">
	<g
   id="g3191">
		<polygon
   style="fill:#e6e6e6"
   id="polygon3193"
   points="190.778,266.944 183.71,274.014 176.64,266.944 144.188,266.944 144.188,330.944 177.618,330.944 184.188,337.514 190.757,330.944 225.188,330.944 225.188,266.944 190.778,266.944 " />
	</g>
</g><g
   transform="translate(18.7248,0.9855158)"
   id="g3195">
	<g
   id="g3197">
		<polygon
   style="fill:#e6e6e6"
   id="polygon3199"
   points="191.445,190.944 184.376,198.014 177.306,190.944 143.688,190.944 143.688,254.944 177.118,254.944 183.688,261.514 190.257,254.944 224.688,254.944 224.688,190.944 191.445,190.944 " />
	</g>
</g><g
   transform="matrix(1.1980743,0,0,1,1.4410357,0.9855158)"
   id="g3201">
	<g
   id="g3203">
		<polygon
   style="fill:#4a4a30"
   id="polygon3205"
   points="87.259,254.109 81.188,248.037 81.188,221.611 0.188,221.611 0.188,285.61 81.188,285.61 81.188,260.181 87.259,254.109 " />
	</g>
</g><g
   transform="translate(18.7248,0.9855158)"
   id="g3207">
	<g
   id="g3209">
		<polygon
   style="fill:#7e8082"
   id="polygon3211"
   points="215.188,71.944 154.188,71.944 154.188,123.944 178.618,123.944 185.188,130.514 191.757,123.944 215.188,123.944 215.188,71.944 " />
	</g>
</g><rect
   style="fill:none"
   id="rect3213"
   height="21.333"
   width="116.666"
   y="148.26352"
   x="144.72481" /><text
   style="font-size:12px;fill:#ffffff;font-family:MyriadPro-Regular"
   y="156.78381"
   x="139.37044"
   id="text3215"
   font-size="12">Moblin Source Mirror</text>

<rect
   style="fill:none"
   id="rect3217"
   height="40.667"
   width="58.666"
   y="83.763519"
   x="174.0798" /><text
   y="95.464226"
   x="181.80087"
   id="text3219"><tspan
     style="font-size:12px;fill:#ffffff;font-family:MyriadPro-Regular"
     id="tspan3221"
     font-size="12"
     y="95.464226"
     x="181.80087">Moblin </tspan><tspan
     style="font-size:12px;fill:#ffffff;font-family:MyriadPro-Regular"
     id="tspan3223"
     font-size="12"
     y="109.86423"
     x="179.52087">Projects</tspan></text>

<g
   transform="translate(18.7248,0.9855158)"
   id="g3225">
	<g
   id="g3227">
		<polygon
   style="fill:#7e8082"
   id="polygon3229"
   points="281.688,71.944 220.688,71.944 220.688,123.944 245.118,123.944 251.688,130.514 258.257,123.944 281.688,123.944 281.688,71.944 " />
	</g>
</g><rect
   style="fill:none"
   id="rect3231"
   height="40.667"
   width="58.666"
   y="80.763519"
   x="240.5798" /><text
   y="89.775673"
   x="240.46423"
   id="text3233"><tspan
     style="font-size:12px;fill:#ffffff;font-family:MyriadPro-Regular"
     id="tspan3235"
     font-size="12"
     y="89.775673"
     x="240.46423">Upstream </tspan><tspan
     style="font-size:12px;fill:#ffffff;font-family:MyriadPro-Regular"
     id="tspan3237"
     font-size="12"
     y="104.17568"
     x="251.34822">SCMs </tspan><tspan
     style="font-size:12px;fill:#ffffff;font-family:MyriadPro-Regular"
     id="tspan3239"
     font-size="12"
     y="118.57568"
     x="240.54823">(optional)</tspan></text>

<g
   transform="translate(18.7248,0.9855158)"
   id="g3241">
	<g
   id="g3243">
		<polygon
   style="fill:#7e8082"
   id="polygon3245"
   points="148.188,71.944 87.188,71.944 87.188,123.944 111.618,123.944 118.188,130.514 124.757,123.944 148.188,123.944 148.188,71.944 " />
	</g>
</g><rect
   style="fill:none"
   id="rect3247"
   height="40.667"
   width="58.666"
   y="83.763519"
   x="107.0798" /><text
   y="94.746704"
   x="107.45698"
   id="text3249"><tspan
     style="font-size:12px;fill:#ffffff;font-family:MyriadPro-Regular"
     id="tspan3251"
     font-size="12"
     y="94.746704"
     x="107.45698">Upstream </tspan><tspan
     style="font-size:12px;fill:#ffffff;font-family:MyriadPro-Regular"
     id="tspan3253"
     font-size="12"
     y="109.14671"
     x="110.67298">Releases</tspan></text>

<rect
   style="fill:none"
   id="rect3255"
   height="40.667"
   width="58.666"
   y="209.76352"
   x="174.0798" /><text
   y="220.7467"
   x="183.73561"
   id="text3257"><tspan
     style="font-size:12px;font-family:MyriadPro-Regular"
     id="tspan3259"
     font-size="12"
     y="220.7467"
     x="183.73561">Source </tspan><tspan
     style="font-size:12px;font-family:MyriadPro-Regular"
     id="tspan3261"
     font-size="12"
     y="235.14671"
     x="178.92961">Fetching</tspan></text>

<rect
   style="fill:none"
   id="rect3263"
   height="40.666"
   width="58.666"
   y="287.76352"
   x="174.0798" /><text
   y="296.28342"
   x="189.32541"
   id="text3265"><tspan
     style="font-size:12px;font-family:MyriadPro-Regular"
     id="tspan3267"
     font-size="12"
     y="296.28342"
     x="189.32541">Patch </tspan><tspan
     style="font-size:12px;font-family:MyriadPro-Regular"
     id="tspan3269"
     font-size="12"
     y="310.6824"
     x="174.4994">Application</tspan></text>

<rect
   style="fill:none"
   id="rect3271"
   height="69.237"
   width="74.166"
   y="351.76352"
   x="166.0798" /><text
   y="360.28342"
   x="168.39371"
   id="text3273"><tspan
     style="font-size:12px;font-family:MyriadPro-Regular"
     id="tspan3275"
     font-size="12"
     y="360.28342"
     x="168.39371">Configuration </tspan><tspan
     style="font-size:12px;font-family:MyriadPro-Regular"
     id="tspan3277"
     font-size="12"
     y="374.68341"
     x="175.4857">/ Compile / </tspan><tspan
     style="font-size:12px;font-family:MyriadPro-Regular"
     id="tspan3279"
     font-size="12"
     y="389.08441"
     x="168.33371">Autoreconf as </tspan><tspan
     style="font-size:12px;font-family:MyriadPro-Regular"
     id="tspan3281"
     font-size="12"
     y="403.48343"
     x="184.04771">needed</tspan></text>

<rect
   style="fill:none"
   id="rect3283"
   height="89.237"
   width="74.166"
   y="256.76352"
   x="260.0798" /><text
   y="265.28381"
   x="279.0314"
   id="text3285"><tspan
     style="font-size:12px;font-family:MyriadPro-Regular"
     id="tspan3287"
     font-size="12"
     y="265.28381"
     x="279.0314">Output </tspan><tspan
     style="font-size:12px;font-family:MyriadPro-Regular"
     id="tspan3289"
     font-size="12"
     y="279.68381"
     x="268.5914">Analysis for </tspan><tspan
     style="font-size:12px;font-family:MyriadPro-Regular"
     id="tspan3291"
     font-size="12"
     y="294.0838"
     x="276.10339">package </tspan><tspan
     style="font-size:12px;font-family:MyriadPro-Regular"
     id="tspan3293"
     font-size="12"
     y="308.48383"
     x="264.71039">splitting plus </tspan><tspan
     style="font-size:12px;font-family:MyriadPro-Regular"
     id="tspan3295"
     font-size="12"
     y="322.88382"
     x="276.10339">package </tspan><tspan
     style="font-size:12px;font-family:MyriadPro-Regular"
     id="tspan3297"
     font-size="12"
     y="337.28381"
     x="264.97339">relationships</tspan></text>

<rect
   style="fill:none"
   id="rect3299"
   height="21.333"
   width="116.666"
   y="199.76352"
   x="378.05881" /><text
   style="font-size:12px;font-family:MyriadPro-Regular"
   y="208.28381"
   x="383.60519"
   id="text3301"
   font-size="12">Raw .rpm Generation</text>

<rect
   style="fill:none"
   id="rect3303"
   height="21.333"
   width="116.666"
   y="239.26352"
   x="378.05881" /><text
   style="font-size:12px;font-family:MyriadPro-Regular"
   y="247.78381"
   x="384.1813"
   id="text3305"
   font-size="12">Raw .deb Generation</text>

<rect
   style="fill:none"
   id="rect3307"
   height="21.333"
   width="116.666"
   y="277.76352"
   x="378.05881" /><text
   style="font-size:12px;font-family:MyriadPro-Regular"
   y="286.28342"
   x="386.35318"
   id="text3309"
   font-size="12">Raw .ipk Generation</text>

<rect
   style="fill:none"
   id="rect3311"
   height="30.237"
   width="77.166"
   y="379.76352"
   x="355.0798" /><text
   y="388.28342"
   x="357.13589"
   id="text3313"><tspan
     style="font-size:12px;font-family:MyriadPro-Regular"
     id="tspan3315"
     font-size="12"
     y="388.28342"
     x="357.13589">Debian Source </tspan><tspan
     style="font-size:12px;font-family:MyriadPro-Regular"
     id="tspan3317"
     font-size="12"
     y="402.68341"
     x="365.57788">Generation</tspan></text>

<rect
   style="fill:none"
   id="rect3319"
   height="33.664001"
   width="71.853996"
   y="333.76352"
   x="358.5798" /><text
   y="342.28342"
   x="382.4411"
   id="text3321"><tspan
     style="font-size:12px;font-family:MyriadPro-Regular"
     id="tspan3323"
     font-size="12"
     y="342.28342"
     x="382.4411">Spec </tspan><tspan
     style="font-size:12px;font-family:MyriadPro-Regular"
     id="tspan3325"
     font-size="12"
     y="356.68341"
     x="366.42108">Generation</tspan></text>

<rect
   style="fill:none"
   id="rect3327"
   height="33.664001"
   width="71.853996"
   y="333.76352"
   x="454.89279" /><text
   y="342.28342"
   x="466.2912"
   id="text3329"><tspan
     style="font-size:12px;font-family:MyriadPro-Regular"
     id="tspan3331"
     font-size="12"
     y="342.28342"
     x="466.2912">RPM from </tspan><tspan
     style="font-size:12px;font-family:MyriadPro-Regular"
     id="tspan3333"
     font-size="12"
     y="356.68341"
     x="478.75418">Spec</tspan></text>

<rect
   style="fill:none"
   id="rect3335"
   height="30.237"
   width="77.166"
   y="379.76352"
   x="449.5798" /><text
   y="388.28342"
   x="464.6799"
   id="text3337"><tspan
     style="font-size:12px;font-family:MyriadPro-Regular"
     id="tspan3339"
     font-size="12"
     y="388.28342"
     x="464.6799">DEB from </tspan><tspan
     style="font-size:12px;font-family:MyriadPro-Regular"
     id="tspan3341"
     font-size="12"
     y="402.68341"
     x="470.94989">Source</tspan></text>

<rect
   style="fill:none"
   x="18.7248"
   id="rect3343"
   height="39.334"
   width="81.666"
   y="241.92952" /><text
   y="250.44942"
   x="38.477043"
   id="text3345"><tspan
     style="font-size:12px;fill:#ffffff;font-family:MyriadPro-Regular"
     id="tspan3347"
     font-size="12"
     y="250.44942"
     x="38.477043">User</tspan><tspan
     style="font-size:12px;fill:#ffffff;font-family:MyriadPro-Regular"
     id="tspan3349"
     font-size="12"
     y="264.84943"
     x="14.934043">Configuration</tspan></text>

<g
   transform="matrix(1.1980743,0,0,1,1.4410357,0.9855158)"
   id="g3351">
	<g
   id="g3353">
		<polygon
   style="fill:#4a4a30"
   id="polygon3355"
   points="87.259,338.776 81.188,332.704 81.188,306.278 0.188,306.278 0.188,370.278 81.188,370.278 81.188,344.849 87.259,338.776 " />
	</g>
</g><rect
   style="fill:none"
   x="18.7248"
   id="rect3357"
   height="39.333"
   width="81.666"
   y="320.0975" /><text
   y="327.38544"
   x="49.513947"
   id="text3359"
   style="font-size:12px;font-style:normal;font-variant:normal;font-weight:normal;font-stretch:normal;text-align:center;line-height:125%;writing-mode:lr-tb;text-anchor:middle;fill:#ffffff;font-family:Bitstream Vera Sans;-inkscape-font-specification:Bitstream Vera Sans"
   sodipodi:linespacing="125%"><tspan
     sodipodi:role="line"
     id="tspan4790"
     x="49.513947"
     y="327.38544">Moblin</tspan><tspan
     sodipodi:role="line"
     id="tspan4792"
     x="49.513947"
     y="342.38544">Metadata</tspan><tspan
     sodipodi:role="line"
     id="tspan4794"
     x="49.513947"
     y="357.38544">(.bb + patches)</tspan></text>

<rect
   style="fill:none"
   id="rect3367"
   height="20.163"
   width="112.186"
   y="204.09752"
   x="629.2478" /><text
   style="font-size:12px;font-family:MyriadPro-Regular"
   y="212.61731"
   x="648.53729"
   id="text3369"
   font-size="12">Package Feeds</text>

<rect
   style="fill:none"
   id="rect3371"
   height="39.332001"
   width="81.666"
   y="378.93051"
   x="596.3938" /><text
   style="font-size:12px;fill:#ffffff;font-family:MyriadPro-Regular"
   y="387.4494"
   x="619.16132"
   id="text3373"
   font-size="12">Images</text>

<rect
   style="fill:none"
   id="rect3375"
   height="33.664001"
   width="71.853996"
   y="288.7645"
   x="600.55981" /><text
   y="297.28531"
   x="620.79712"
   id="text3377"><tspan
     style="font-size:12px;font-family:MyriadPro-Regular"
     id="tspan3379"
     font-size="12"
     y="297.28531"
     x="620.79712">Image </tspan><tspan
     style="font-size:12px;font-family:MyriadPro-Regular"
     id="tspan3381"
     font-size="12"
     y="311.68433"
     x="608.40112">Generation</tspan></text>

<rect
   style="fill:none"
   id="rect3383"
   height="30.237"
   width="77.166"
   y="287.7645"
   x="695.24579" /><text
   y="296.28531"
   x="723.62323"
   id="text3385"><tspan
     style="font-size:12px;font-family:MyriadPro-Regular"
     id="tspan3387"
     font-size="12"
     y="296.28531"
     x="723.62323">SDK </tspan><tspan
     style="font-size:12px;font-family:MyriadPro-Regular"
     id="tspan3389"
     font-size="12"
     y="310.68433"
     x="705.7442">Generation</tspan></text>

<rect
   style="fill:none"
   id="rect3391"
   height="21.164"
   width="199.03999"
   y="159.76352"
   x="397.7258" /><text
   style="font-size:12px;fill:#333333;font-family:MyriadPro-Regular"
   y="168.28381"
   x="411.53101"
   id="text3393"
   font-size="12">Poky Build and Integration System</text>

<rect
   style="fill:none"
   id="rect3395"
   height="45.164001"
   width="512.70801"
   y="2.7645159"
   x="26.7258" /><text
   style="font-size:14px;fill:#333333;font-family:MyriadPro-Regular"
   y="12.703815"
   x="26.7258"
   id="text3397"
   font-size="14">Generation of Moblin in a non-Moblin Environment</text>

<rect
   style="fill:none"
   id="rect3399"
   height="39.332001"
   width="81.666"
   y="377.5965"
   x="692.06079" /><text
   y="386.11542"
   x="704.40643"
   id="text3401"><tspan
     style="font-size:12px;fill:#ffffff;font-family:MyriadPro-Regular"
     id="tspan3403"
     font-size="12"
     y="386.11542"
     x="704.40643">Standalone</tspan><tspan
     style="font-size:12px;fill:#ffffff;font-family:MyriadPro-Regular"
     id="tspan3405"
     font-size="12"
     y="400.51541"
     x="722.68744">SDK</tspan></text>

</svg>