/* XPM */
static char * icon_xpm[] = {
"32 32 8 1",
" 	c None",
".	c #D6DBDE",
"+	c #9BA6AE",
"@	c #60727D",
"#	c #B8BFC5",
"$	c #A9E8F6",
"%	c #12BCE4",
"&	c #57D2EC",
"                                ",
"                                ",
"                                ",
"           .++@@@@++.           ",
"         +@@@@@@@@@@@@+         ",
"       #@@@@@@@@@@@@@@@@#       ",
"      +@@@@@@@@@@@@@@@@@@+      ",
"    .@@@@@@@@++##+@@@@@@@@@.    ",
"    @@@@@@@.        .@@@@@@@    ",
"   +@@@@@+    $$$$    #@@@@@+   ",
"  #@@@@@.  $%%%%%%%%$  .@@@@@#  ",
"  @@@@@.  &%%%%%%%%%%&  .@@@@@  ",
" #@@@@+  %%%%%%%%%%%%%%  +@@@@# ",
" @@@@@  &%%%%%%%%%%%%%%&  @@@@@ ",
".@@@@. $%%%%%&   $%%%%%&  .@@@@.",
"+@@@@  %%%%%    $%%%%%&    @@@@+",
"+@@@+  %%%%$   $%%%%%&  $$ +@@@+",
"@@@@+ $%%%%   $%%%%%&  $%$ +@@@@",
"@@@@# &%%%&   &%%%%&  $%%& #@@@@",
"@@@@. &%%%&   %%%%&  $%%%& .@@@@",
"@@@@# $%%%&   &%%&   &%%%$ #@@@@",
"+@@@+ $%%%%          %%%%$ +@@@+",
"+@@@@  %%%%&        &%%%%  @@@@+",
"#@@@@  &%%%%&      &%%%%&  @@@@#",
" @@@@+  %%%%%%&$$&%%%%%%  +@@@@ ",
" +@@@@. $%%%%%%%%%%%%%%$ .@@@@+ ",
" .@@@@@  $%%%%%%%%%%%%$  @@@@@. ",
"  #++++.   &%%%%%%%%&   .++++#  ",
"            $&&%%&&$            ",
"                                ",
"                                ",
"                                "};
