<?xml version="1.0" encoding="UTF-8" standalone="no"?>
<!-- Created with Inkscape (http://www.inkscape.org/) -->

<svg
   width="1280mm"
   height="800mm"
   viewBox="0 0 1280 800"
   version="1.1"
   id="svg5"
   inkscape:version="1.1.2 (0a00cf5339, 2022-02-04)"
   sodipodi:docname="psplash-poky-img.svg"
   inkscape:export-filename="/home/mike/work/yocto/poky/meta/recipes-core/psplash/files/psplash-poky-img.png"
   inkscape:export-xdpi="25.4"
   inkscape:export-ydpi="25.4"
   xmlns:inkscape="http://www.inkscape.org/namespaces/inkscape"
   xmlns:sodipodi="http://sodipodi.sourceforge.net/DTD/sodipodi-0.dtd"
   xmlns="http://www.w3.org/2000/svg"
   xmlns:svg="http://www.w3.org/2000/svg">
  <sodipodi:namedview
     id="namedview7"
     pagecolor="#ecece1"
     bordercolor="#666666"
     borderopacity="1.0"
     inkscape:pageshadow="2"
     inkscape:pageopacity="0"
     inkscape:pagecheckerboard="0"
     inkscape:document-units="mm"
     showgrid="false"
     units="mm"
     inkscape:zoom="0.093984989"
     inkscape:cx="2489.7593"
     inkscape:cy="1005.4797"
     inkscape:window-width="1654"
     inkscape:window-height="1016"
     inkscape:window-x="74"
     inkscape:window-y="27"
     inkscape:window-maximized="1"
     inkscape:current-layer="layer1" />
  <defs
     id="defs2" />
  <g
     inkscape:label="Layer 1"
     inkscape:groupmode="layer"
     id="layer1">
    <g
       id="g10"
       transform="matrix(0.90740741,0,0,-0.90740791,444,460.88448)"
       style="stroke-width:0.0971934">
      <g
         id="g12"
         transform="scale(0.1)"
         style="stroke-width:0.0971934">
        <path
           inkscape:connector-curvature="0"
           d="m 4320,994.227 c 0,-45.723 -36.96,-82.813 -82.81,-82.813 -45.72,0 -82.68,37.09 -82.68,82.813 0,45.713 36.96,82.793 82.68,82.793 45.85,0 82.81,-37.08 82.81,-82.793 v 0"
           style="fill:#4597d9;fill-opacity:1;fill-rule:nonzero;stroke:none;stroke-width:0.0971934"
           id="path14" />
        <path
           inkscape:connector-curvature="0"
           d="M 796.738,1353.54 676.184,1421.84 433.375,929.832 174.371,1421.84 52.2461,1353.54 360.098,775.184 c -2.223,-5.477 -9.274,-20.625 -21.157,-45.704 -12.011,-23.906 -24.429,-47.792 -37.488,-71.718 -22.859,-41.274 -46.105,-74.84 -70.004,-100.961 -23.906,-27.16 -48.336,-48.84 -73.406,-65.172 C 133.098,475.301 107.105,462.898 79.9375,454.148 53.8125,445.52 27.168,438.461 0,432.98 L 55.5117,317.25 c 17.375,2.23 40.6211,7.719 70.0113,16.332 30.43,7.578 63.477,22.328 99.395,44.02 35.785,21.679 72.227,52.636 109.059,92.859 38.14,40.23 73.406,93.391 105.925,159.609 l 356.836,723.47"
           style="fill:#000000;fill-opacity:1;fill-rule:nonzero;stroke:none;stroke-width:0.0971934"
           id="path16" />
        <path
           inkscape:connector-curvature="0"
           d="m 1455.8,993.445 c 0,-38.007 -6.52,-73.281 -19.59,-105.929 -13.07,-32.52 -30.96,-60.868 -53.68,-84.637 -21.81,-22.852 -47.8,-41.27 -78.23,-55.508 -29.4,-12.93 -61.39,-19.453 -96.14,-19.453 -34.74,0 -67.39,6.523 -97.69,19.453 -30.43,14.238 -57.08,32.656 -79.94,55.508 -21.68,23.769 -39.046,52.117 -52.112,84.637 -13.059,32.648 -19.59,67.922 -19.59,105.929 0,38.005 6.531,73.265 19.59,105.895 13.066,32.55 30.432,60.77 52.112,84.68 22.86,23.9 49.51,42.43 79.94,55.36 30.3,14.26 62.95,21.31 97.69,21.31 34.75,0 66.74,-7.05 96.14,-21.31 30.43,-12.93 56.42,-31.46 78.23,-55.36 22.72,-23.91 40.61,-52.13 53.68,-84.68 13.07,-32.63 19.59,-67.89 19.59,-105.895 m 151.51,0 c 0,56.425 -10.32,109.185 -30.95,158.035 -19.59,48.85 -47.28,91.18 -83.07,127.08 -35.92,35.8 -78.23,63.48 -127.08,83.08 -48.85,20.61 -101.62,30.95 -158.05,30.95 -56.42,0 -109.2,-10.34 -158.04,-30.95 -48.84,-19.6 -91.292,-47.28 -127.085,-83.08 -35.789,-35.9 -64.129,-78.23 -84.765,-127.08 -20.633,-48.85 -30.946,-101.61 -30.946,-158.035 0,-56.425 10.313,-109.199 30.946,-158.047 20.636,-47.804 48.976,-89.589 84.765,-125.39 35.793,-35.918 78.245,-64.121 127.085,-84.77 48.84,-19.59 101.62,-29.386 158.04,-29.386 56.43,0 109.2,9.796 158.05,29.386 48.85,20.649 91.16,48.852 127.08,84.77 35.79,35.801 63.48,77.586 83.07,125.39 20.63,48.848 30.95,101.622 30.95,158.047"
           style="fill:#000000;fill-opacity:1;fill-rule:nonzero;stroke:none;stroke-width:0.0971934"
           id="path18" />
        <path
           inkscape:connector-curvature="0"
           d="m 3599.29,993.445 c 0,-38.007 -6.54,-73.281 -19.6,-105.929 -13.07,-32.52 -30.95,-60.868 -53.82,-84.637 -21.68,-22.852 -47.67,-41.27 -78.1,-55.508 -29.39,-12.93 -61.39,-19.453 -96.13,-19.453 -34.75,0 -67.4,6.523 -97.83,19.453 -30.3,14.238 -56.94,32.656 -79.8,55.508 -21.69,23.769 -39.06,52.117 -52.12,84.637 -13.06,32.648 -19.6,67.922 -19.6,105.929 0,38.005 6.54,73.265 19.6,105.895 13.06,32.55 30.43,60.77 52.12,84.68 22.86,23.9 49.5,42.43 79.8,55.36 30.43,14.26 63.08,21.31 97.83,21.31 34.74,0 66.74,-7.05 96.13,-21.31 30.43,-12.93 56.42,-31.46 78.1,-55.36 22.87,-23.91 40.75,-52.13 53.82,-84.68 13.06,-32.63 19.6,-67.89 19.6,-105.895 m 151.5,0 c 0,56.425 -10.32,109.185 -30.96,158.035 -19.59,48.85 -47.28,91.18 -83.06,127.08 -35.92,35.8 -78.23,63.48 -127.09,83.08 -48.85,20.61 -101.61,30.95 -158.04,30.95 -56.56,0 -109.19,-10.34 -158.05,-30.95 -48.84,-19.6 -91.3,-47.28 -127.08,-83.08 -35.79,-35.9 -64.13,-78.23 -84.77,-127.08 -20.63,-48.85 -30.95,-101.61 -30.95,-158.035 0,-56.425 10.32,-109.199 30.95,-158.047 20.64,-47.804 48.98,-89.589 84.77,-125.39 35.78,-35.918 78.24,-64.121 127.08,-84.77 48.86,-19.59 101.49,-29.386 158.05,-29.386 56.43,0 109.19,9.796 158.04,29.386 48.86,20.649 91.17,48.852 127.09,84.77 35.78,35.801 63.47,77.586 83.06,125.39 20.64,48.848 30.96,101.622 30.96,158.047"
           style="fill:#000000;fill-opacity:1;fill-rule:nonzero;stroke:none;stroke-width:0.0971934"
           id="path20" />
        <path
           inkscape:connector-curvature="0"
           d="m 2676.51,1639.06 -145.11,-81.49 v -178.19 h -392.37 c -283.29,0 -454,-138.02 -454,-389.47 0,-390.531 406.85,-464.199 696.16,-324.57 l -60.99,118.34 c -228.97,-100.039 -482.49,-57.461 -482.49,208.847 0,171.893 89.48,265.933 297.8,265.933 H 2531.4 V 783.68 c 0,-209.899 240.45,-214.59 389.48,-128.535 l -57.34,113.261 c -95.87,-48.593 -187.03,-54.863 -187.03,38.262 v 451.792 h 198.53 v 120.92 h -198.53 v 259.68 0"
           style="fill:#000000;fill-opacity:1;fill-rule:nonzero;stroke:none;stroke-width:0.0971934"
           id="path22" />
        <path
           inkscape:connector-curvature="0"
           d="m 1037.58,233.66 h 36.32 c 18.29,0.141 36.18,-12.93 36.18,-31.469 0,-31.089 -35.01,-35.8 -35.01,-35.8 l -37.49,-0.25 z m -52.365,44.41 V 3.91016 h 52.365 l 0.66,115.60984 c 93.38,-5.879 128.26,26.64 128.26,83.96 0,51.469 -46.11,74.59 -90.39,74.59 h -90.895 v 0"
           style="fill:#000000;fill-opacity:1;fill-rule:nonzero;stroke:none;stroke-width:0.0971934"
           id="path24" />
        <path
           inkscape:connector-curvature="0"
           d="m 1986.62,140.809 c 0,-13.34 -2.49,-25.879 -7.45,-37.5 -4.58,-11.227 -11.1,-21.1488 -19.6,-29.6488 -8.49,-8.4805 -18.41,-15.1407 -29.78,-20.1211 -11.23,-4.5703 -23.5,-6.9102 -36.57,-6.9102 -13.19,0 -25.47,2.3399 -36.7,6.9102 -11.36,4.9804 -21.29,11.6406 -29.78,20.1211 -8.22,8.5 -14.76,18.4218 -19.59,29.6488 -4.96,11.621 -7.44,24.16 -7.44,37.5 0,13.32 2.48,25.722 7.44,37.089 4.83,11.481 11.37,21.543 19.59,30.043 8.49,8.469 18.42,15.02 29.78,19.719 11.23,4.828 23.51,7.309 36.7,7.309 13.07,0 25.34,-2.481 36.57,-7.309 11.37,-4.699 21.29,-11.25 29.78,-19.719 8.5,-8.5 15.02,-18.562 19.6,-30.043 4.96,-11.367 7.45,-23.769 7.45,-37.089 m 53.16,0 c 0,19.589 -3.8,37.871 -11.5,54.839 -7.45,17.25 -17.9,32.133 -31.35,44.672 -13.06,12.68 -28.61,22.602 -46.63,29.782 -17.76,7.468 -36.96,11.238 -57.47,11.238 -20.63,0 -39.96,-3.77 -57.99,-11.238 -17.76,-7.18 -33.17,-17.102 -46.24,-29.782 -13.19,-12.539 -23.5,-27.422 -31.34,-44.672 -7.46,-16.968 -11.11,-35.25 -11.11,-54.839 0,-19.868 3.65,-38.278 11.11,-55.2582 7.84,-16.9922 18.15,-31.8711 31.34,-44.6602 13.07,-12.6797 28.48,-22.6015 46.24,-29.789 18.03,-7.19144 37.36,-10.839881 57.99,-10.839881 20.51,0 39.71,3.648441 57.47,10.839881 18.02,7.1875 33.57,17.1093 46.63,29.789 13.45,12.7891 23.9,27.668 31.35,44.6602 7.7,16.9802 11.5,35.3902 11.5,55.2582"
           style="fill:#000000;fill-opacity:1;fill-rule:nonzero;stroke:none;stroke-width:0.0971934"
           id="path26" />
        <path
           inkscape:connector-curvature="0"
           d="M 2253.58,277.57 V 69.75 c 0,-8.3594 -6.14,-17.6289 -16.32,-17.8906 l -16.32,-0.6602 0.91,-50.937481 15.28,-0.2500002 C 2288.33,-0.769531 2306.08,47.4102 2306.08,69.8906 V 277.16"
           style="fill:#000000;fill-opacity:1;fill-rule:nonzero;stroke:none;stroke-width:0.0971934"
           id="path28" />
        <path
           inkscape:connector-curvature="0"
           d="M 2699.76,278.211 H 2524.99 V 4.96875 h 175.55 l -0.78,44.00005 H 2577.5 v 71.3322 h 102.28 v 44 H 2577.5 v 69.109 h 121.47 l 0.79,44.801"
           style="fill:#000000;fill-opacity:1;fill-rule:nonzero;stroke:none;stroke-width:0.0971934"
           id="path30" />
        <path
           inkscape:connector-curvature="0"
           d="m 3102.69,212.641 c -89.46,49.109 -177.63,19.32 -177.63,-70.661 0,-72.4995 69.62,-128.2612 184.16,-68.3198 l 16.59,-44.7891 C 3015.83,-31.5898 2871.12,11.4883 2871.12,141.98 c 0,118.2 128.39,179.731 253.12,114.942 l -21.55,-44.281"
           style="fill:#000000;fill-opacity:1;fill-rule:nonzero;stroke:none;stroke-width:0.0971934"
           id="path32" />
        <path
           inkscape:connector-curvature="0"
           d="m 3521.83,278.211 0.12,-44.801 h -87.24 V 4.19141 H 3382.2 V 233.41 h -83.71 l 1.17,44.801 h 222.17"
           style="fill:#000000;fill-opacity:1;fill-rule:nonzero;stroke:none;stroke-width:0.0971934"
           id="path34" />
        <path
           inkscape:connector-curvature="0"
           d="m 1426.42,233.66 h 36.31 c 18.29,0.141 36.18,-12.93 36.18,-31.469 0,-31.089 -35,-35.8 -35,-35.8 l -37.49,-0.25 z m -52.25,44.41 V 3.91016 h 52.25 V 121.859 h 34.62 L 1521.63,3.91016 h 59.56 L 1508.96,136.102 c 28.61,12.789 43.5,35.269 43.5,67.378 0,53.559 -46.89,74.59 -98.49,74.59 h -79.8 v 0"
           style="fill:#000000;fill-opacity:1;fill-rule:nonzero;stroke:none;stroke-width:0.0971934"
           id="path36" />
      </g>
    </g>
  </g>
</svg>
